<?xml version="1.0" encoding="utf-8" standalone="no"?>
<!DOCTYPE svg PUBLIC "-//W3C//DTD SVG 1.1//EN"
  "http://www.w3.org/Graphics/SVG/1.1/DTD/svg11.dtd">
<svg xmlns:xlink="http://www.w3.org/1999/xlink" width="288pt" height="216pt" viewBox="0 0 288 216" xmlns="http://www.w3.org/2000/svg" version="1.1">
 <metadata>
  <rdf:RDF xmlns:dc="http://purl.org/dc/elements/1.1/" xmlns:cc="http://creativecommons.org/ns#" xmlns:rdf="http://www.w3.org/1999/02/22-rdf-syntax-ns#">
   <cc:Work>
    <dc:type rdf:resource="http://purl.org/dc/dcmitype/StillImage"/>
    <dc:date>2024-05-21T19:41:15.936340</dc:date>
    <dc:format>image/svg+xml</dc:format>
    <dc:creator>
     <cc:Agent>
      <dc:title>Matplotlib v3.6.2, https://matplotlib.org/</dc:title>
     </cc:Agent>
    </dc:creator>
   </cc:Work>
  </rdf:RDF>
 </metadata>
 <defs>
  <style type="text/css">*{stroke-linejoin: round; stroke-linecap: butt}</style>
 </defs>
 <g id="figure_1">
  <g id="patch_1">
   <path d="M 0 216 
L 288 216 
L 288 0 
L 0 0 
L 0 216 
z
" style="fill: none"/>
  </g>
  <g id="axes_1">
   <g id="patch_2">
    <path d="M 46.3 188.2 
L 275.858368 188.2 
L 275.858368 12.787082 
L 46.3 12.787082 
z
" style="fill: #ffffff"/>
   </g>
   <g id="matplotlib.axis_1">
    <g id="xtick_1">
     <g id="line2d_1">
      <defs>
       <path id="m7d15335c4c" d="M 0 0 
L 0 3.5 
" style="stroke: #000000; stroke-width: 0.8"/>
      </defs>
      <g>
       <use xlink:href="#m7d15335c4c" x="56.734471" y="188.2" style="stroke: #000000; stroke-width: 0.8"/>
      </g>
     </g>
     <g id="text_1">
      <!-- 0 -->
      <g transform="translate(53.553221 202.798437) scale(0.1 -0.1)">
       <defs>
        <path id="DejaVuSans-30" d="M 2034 4250 
Q 1547 4250 1301 3770 
Q 1056 3291 1056 2328 
Q 1056 1369 1301 889 
Q 1547 409 2034 409 
Q 2525 409 2770 889 
Q 3016 1369 3016 2328 
Q 3016 3291 2770 3770 
Q 2525 4250 2034 4250 
z
M 2034 4750 
Q 2819 4750 3233 4129 
Q 3647 3509 3647 2328 
Q 3647 1150 3233 529 
Q 2819 -91 2034 -91 
Q 1250 -91 836 529 
Q 422 1150 422 2328 
Q 422 3509 836 4129 
Q 1250 4750 2034 4750 
z
" transform="scale(0.015625)"/>
       </defs>
       <use xlink:href="#DejaVuSans-30"/>
      </g>
     </g>
    </g>
    <g id="xtick_2">
     <g id="line2d_2">
      <g>
       <use xlink:href="#m7d15335c4c" x="98.893951" y="188.2" style="stroke: #000000; stroke-width: 0.8"/>
      </g>
     </g>
     <g id="text_2">
      <!-- 20 -->
      <g transform="translate(92.531451 202.798437) scale(0.1 -0.1)">
       <defs>
        <path id="DejaVuSans-32" d="M 1228 531 
L 3431 531 
L 3431 0 
L 469 0 
L 469 531 
Q 828 903 1448 1529 
Q 2069 2156 2228 2338 
Q 2531 2678 2651 2914 
Q 2772 3150 2772 3378 
Q 2772 3750 2511 3984 
Q 2250 4219 1831 4219 
Q 1534 4219 1204 4116 
Q 875 4013 500 3803 
L 500 4441 
Q 881 4594 1212 4672 
Q 1544 4750 1819 4750 
Q 2544 4750 2975 4387 
Q 3406 4025 3406 3419 
Q 3406 3131 3298 2873 
Q 3191 2616 2906 2266 
Q 2828 2175 2409 1742 
Q 1991 1309 1228 531 
z
" transform="scale(0.015625)"/>
       </defs>
       <use xlink:href="#DejaVuSans-32"/>
       <use xlink:href="#DejaVuSans-30" x="63.623047"/>
      </g>
     </g>
    </g>
    <g id="xtick_3">
     <g id="line2d_3">
      <g>
       <use xlink:href="#m7d15335c4c" x="141.053431" y="188.2" style="stroke: #000000; stroke-width: 0.8"/>
      </g>
     </g>
     <g id="text_3">
      <!-- 40 -->
      <g transform="translate(134.690931 202.798437) scale(0.1 -0.1)">
       <defs>
        <path id="DejaVuSans-34" d="M 2419 4116 
L 825 1625 
L 2419 1625 
L 2419 4116 
z
M 2253 4666 
L 3047 4666 
L 3047 1625 
L 3713 1625 
L 3713 1100 
L 3047 1100 
L 3047 0 
L 2419 0 
L 2419 1100 
L 313 1100 
L 313 1709 
L 2253 4666 
z
" transform="scale(0.015625)"/>
       </defs>
       <use xlink:href="#DejaVuSans-34"/>
       <use xlink:href="#DejaVuSans-30" x="63.623047"/>
      </g>
     </g>
    </g>
    <g id="xtick_4">
     <g id="line2d_4">
      <g>
       <use xlink:href="#m7d15335c4c" x="183.212911" y="188.2" style="stroke: #000000; stroke-width: 0.8"/>
      </g>
     </g>
     <g id="text_4">
      <!-- 60 -->
      <g transform="translate(176.850411 202.798437) scale(0.1 -0.1)">
       <defs>
        <path id="DejaVuSans-36" d="M 2113 2584 
Q 1688 2584 1439 2293 
Q 1191 2003 1191 1497 
Q 1191 994 1439 701 
Q 1688 409 2113 409 
Q 2538 409 2786 701 
Q 3034 994 3034 1497 
Q 3034 2003 2786 2293 
Q 2538 2584 2113 2584 
z
M 3366 4563 
L 3366 3988 
Q 3128 4100 2886 4159 
Q 2644 4219 2406 4219 
Q 1781 4219 1451 3797 
Q 1122 3375 1075 2522 
Q 1259 2794 1537 2939 
Q 1816 3084 2150 3084 
Q 2853 3084 3261 2657 
Q 3669 2231 3669 1497 
Q 3669 778 3244 343 
Q 2819 -91 2113 -91 
Q 1303 -91 875 529 
Q 447 1150 447 2328 
Q 447 3434 972 4092 
Q 1497 4750 2381 4750 
Q 2619 4750 2861 4703 
Q 3103 4656 3366 4563 
z
" transform="scale(0.015625)"/>
       </defs>
       <use xlink:href="#DejaVuSans-36"/>
       <use xlink:href="#DejaVuSans-30" x="63.623047"/>
      </g>
     </g>
    </g>
    <g id="xtick_5">
     <g id="line2d_5">
      <g>
       <use xlink:href="#m7d15335c4c" x="225.372391" y="188.2" style="stroke: #000000; stroke-width: 0.8"/>
      </g>
     </g>
     <g id="text_5">
      <!-- 80 -->
      <g transform="translate(219.009891 202.798437) scale(0.1 -0.1)">
       <defs>
        <path id="DejaVuSans-38" d="M 2034 2216 
Q 1584 2216 1326 1975 
Q 1069 1734 1069 1313 
Q 1069 891 1326 650 
Q 1584 409 2034 409 
Q 2484 409 2743 651 
Q 3003 894 3003 1313 
Q 3003 1734 2745 1975 
Q 2488 2216 2034 2216 
z
M 1403 2484 
Q 997 2584 770 2862 
Q 544 3141 544 3541 
Q 544 4100 942 4425 
Q 1341 4750 2034 4750 
Q 2731 4750 3128 4425 
Q 3525 4100 3525 3541 
Q 3525 3141 3298 2862 
Q 3072 2584 2669 2484 
Q 3125 2378 3379 2068 
Q 3634 1759 3634 1313 
Q 3634 634 3220 271 
Q 2806 -91 2034 -91 
Q 1263 -91 848 271 
Q 434 634 434 1313 
Q 434 1759 690 2068 
Q 947 2378 1403 2484 
z
M 1172 3481 
Q 1172 3119 1398 2916 
Q 1625 2713 2034 2713 
Q 2441 2713 2670 2916 
Q 2900 3119 2900 3481 
Q 2900 3844 2670 4047 
Q 2441 4250 2034 4250 
Q 1625 4250 1398 4047 
Q 1172 3844 1172 3481 
z
" transform="scale(0.015625)"/>
       </defs>
       <use xlink:href="#DejaVuSans-38"/>
       <use xlink:href="#DejaVuSans-30" x="63.623047"/>
      </g>
     </g>
    </g>
    <g id="xtick_6">
     <g id="line2d_6">
      <g>
       <use xlink:href="#m7d15335c4c" x="267.53187" y="188.2" style="stroke: #000000; stroke-width: 0.8"/>
      </g>
     </g>
     <g id="text_6">
      <!-- 100 -->
      <g transform="translate(257.98812 202.798437) scale(0.1 -0.1)">
       <defs>
        <path id="DejaVuSans-31" d="M 794 531 
L 1825 531 
L 1825 4091 
L 703 3866 
L 703 4441 
L 1819 4666 
L 2450 4666 
L 2450 531 
L 3481 531 
L 3481 0 
L 794 0 
L 794 531 
z
" transform="scale(0.015625)"/>
       </defs>
       <use xlink:href="#DejaVuSans-31"/>
       <use xlink:href="#DejaVuSans-30" x="63.623047"/>
       <use xlink:href="#DejaVuSans-30" x="127.246094"/>
      </g>
     </g>
    </g>
   </g>
   <g id="matplotlib.axis_2">
    <g id="ytick_1">
     <g id="line2d_7">
      <defs>
       <path id="m9210a1420c" d="M 0 0 
L -3.5 0 
" style="stroke: #000000; stroke-width: 0.8"/>
      </defs>
      <g>
       <use xlink:href="#m9210a1420c" x="46.3" y="180.226686" style="stroke: #000000; stroke-width: 0.8"/>
      </g>
     </g>
     <g id="text_7">
      <!-- 0.000 -->
      <g transform="translate(10.671875 184.025904) scale(0.1 -0.1)">
       <defs>
        <path id="DejaVuSans-2e" d="M 684 794 
L 1344 794 
L 1344 0 
L 684 0 
L 684 794 
z
" transform="scale(0.015625)"/>
       </defs>
       <use xlink:href="#DejaVuSans-30"/>
       <use xlink:href="#DejaVuSans-2e" x="63.623047"/>
       <use xlink:href="#DejaVuSans-30" x="95.410156"/>
       <use xlink:href="#DejaVuSans-30" x="159.033203"/>
       <use xlink:href="#DejaVuSans-30" x="222.65625"/>
      </g>
     </g>
    </g>
    <g id="ytick_2">
     <g id="line2d_8">
      <g>
       <use xlink:href="#m9210a1420c" x="46.3" y="156.616049" style="stroke: #000000; stroke-width: 0.8"/>
      </g>
     </g>
     <g id="text_8">
      <!-- 0.005 -->
      <g transform="translate(10.671875 160.415267) scale(0.1 -0.1)">
       <defs>
        <path id="DejaVuSans-35" d="M 691 4666 
L 3169 4666 
L 3169 4134 
L 1269 4134 
L 1269 2991 
Q 1406 3038 1543 3061 
Q 1681 3084 1819 3084 
Q 2600 3084 3056 2656 
Q 3513 2228 3513 1497 
Q 3513 744 3044 326 
Q 2575 -91 1722 -91 
Q 1428 -91 1123 -41 
Q 819 9 494 109 
L 494 744 
Q 775 591 1075 516 
Q 1375 441 1709 441 
Q 2250 441 2565 725 
Q 2881 1009 2881 1497 
Q 2881 1984 2565 2268 
Q 2250 2553 1709 2553 
Q 1456 2553 1204 2497 
Q 953 2441 691 2322 
L 691 4666 
z
" transform="scale(0.015625)"/>
       </defs>
       <use xlink:href="#DejaVuSans-30"/>
       <use xlink:href="#DejaVuSans-2e" x="63.623047"/>
       <use xlink:href="#DejaVuSans-30" x="95.410156"/>
       <use xlink:href="#DejaVuSans-30" x="159.033203"/>
       <use xlink:href="#DejaVuSans-35" x="222.65625"/>
      </g>
     </g>
    </g>
    <g id="ytick_3">
     <g id="line2d_9">
      <g>
       <use xlink:href="#m9210a1420c" x="46.3" y="133.005412" style="stroke: #000000; stroke-width: 0.8"/>
      </g>
     </g>
     <g id="text_9">
      <!-- 0.010 -->
      <g transform="translate(10.671875 136.80463) scale(0.1 -0.1)">
       <use xlink:href="#DejaVuSans-30"/>
       <use xlink:href="#DejaVuSans-2e" x="63.623047"/>
       <use xlink:href="#DejaVuSans-30" x="95.410156"/>
       <use xlink:href="#DejaVuSans-31" x="159.033203"/>
       <use xlink:href="#DejaVuSans-30" x="222.65625"/>
      </g>
     </g>
    </g>
    <g id="ytick_4">
     <g id="line2d_10">
      <g>
       <use xlink:href="#m9210a1420c" x="46.3" y="109.394775" style="stroke: #000000; stroke-width: 0.8"/>
      </g>
     </g>
     <g id="text_10">
      <!-- 0.015 -->
      <g transform="translate(10.671875 113.193993) scale(0.1 -0.1)">
       <use xlink:href="#DejaVuSans-30"/>
       <use xlink:href="#DejaVuSans-2e" x="63.623047"/>
       <use xlink:href="#DejaVuSans-30" x="95.410156"/>
       <use xlink:href="#DejaVuSans-31" x="159.033203"/>
       <use xlink:href="#DejaVuSans-35" x="222.65625"/>
      </g>
     </g>
    </g>
    <g id="ytick_5">
     <g id="line2d_11">
      <g>
       <use xlink:href="#m9210a1420c" x="46.3" y="85.784138" style="stroke: #000000; stroke-width: 0.8"/>
      </g>
     </g>
     <g id="text_11">
      <!-- 0.020 -->
      <g transform="translate(10.671875 89.583356) scale(0.1 -0.1)">
       <use xlink:href="#DejaVuSans-30"/>
       <use xlink:href="#DejaVuSans-2e" x="63.623047"/>
       <use xlink:href="#DejaVuSans-30" x="95.410156"/>
       <use xlink:href="#DejaVuSans-32" x="159.033203"/>
       <use xlink:href="#DejaVuSans-30" x="222.65625"/>
      </g>
     </g>
    </g>
    <g id="ytick_6">
     <g id="line2d_12">
      <g>
       <use xlink:href="#m9210a1420c" x="46.3" y="62.173501" style="stroke: #000000; stroke-width: 0.8"/>
      </g>
     </g>
     <g id="text_12">
      <!-- 0.025 -->
      <g transform="translate(10.671875 65.972719) scale(0.1 -0.1)">
       <use xlink:href="#DejaVuSans-30"/>
       <use xlink:href="#DejaVuSans-2e" x="63.623047"/>
       <use xlink:href="#DejaVuSans-30" x="95.410156"/>
       <use xlink:href="#DejaVuSans-32" x="159.033203"/>
       <use xlink:href="#DejaVuSans-35" x="222.65625"/>
      </g>
     </g>
    </g>
    <g id="ytick_7">
     <g id="line2d_13">
      <g>
       <use xlink:href="#m9210a1420c" x="46.3" y="38.562864" style="stroke: #000000; stroke-width: 0.8"/>
      </g>
     </g>
     <g id="text_13">
      <!-- 0.030 -->
      <g transform="translate(10.671875 42.362083) scale(0.1 -0.1)">
       <defs>
        <path id="DejaVuSans-33" d="M 2597 2516 
Q 3050 2419 3304 2112 
Q 3559 1806 3559 1356 
Q 3559 666 3084 287 
Q 2609 -91 1734 -91 
Q 1441 -91 1130 -33 
Q 819 25 488 141 
L 488 750 
Q 750 597 1062 519 
Q 1375 441 1716 441 
Q 2309 441 2620 675 
Q 2931 909 2931 1356 
Q 2931 1769 2642 2001 
Q 2353 2234 1838 2234 
L 1294 2234 
L 1294 2753 
L 1863 2753 
Q 2328 2753 2575 2939 
Q 2822 3125 2822 3475 
Q 2822 3834 2567 4026 
Q 2313 4219 1838 4219 
Q 1578 4219 1281 4162 
Q 984 4106 628 3988 
L 628 4550 
Q 988 4650 1302 4700 
Q 1616 4750 1894 4750 
Q 2613 4750 3031 4423 
Q 3450 4097 3450 3541 
Q 3450 3153 3228 2886 
Q 3006 2619 2597 2516 
z
" transform="scale(0.015625)"/>
       </defs>
       <use xlink:href="#DejaVuSans-30"/>
       <use xlink:href="#DejaVuSans-2e" x="63.623047"/>
       <use xlink:href="#DejaVuSans-30" x="95.410156"/>
       <use xlink:href="#DejaVuSans-33" x="159.033203"/>
       <use xlink:href="#DejaVuSans-30" x="222.65625"/>
      </g>
     </g>
    </g>
    <g id="ytick_8">
     <g id="line2d_14">
      <g>
       <use xlink:href="#m9210a1420c" x="46.3" y="14.952227" style="stroke: #000000; stroke-width: 0.8"/>
      </g>
     </g>
     <g id="text_14">
      <!-- 0.035 -->
      <g transform="translate(10.671875 18.751446) scale(0.1 -0.1)">
       <use xlink:href="#DejaVuSans-30"/>
       <use xlink:href="#DejaVuSans-2e" x="63.623047"/>
       <use xlink:href="#DejaVuSans-30" x="95.410156"/>
       <use xlink:href="#DejaVuSans-33" x="159.033203"/>
       <use xlink:href="#DejaVuSans-35" x="222.65625"/>
      </g>
     </g>
    </g>
   </g>
   <g id="line2d_15">
    <path d="M 56.734471 173.480789 
L 58.842445 178.569301 
L 60.950419 180.127545 
L 63.058393 180.219966 
L 65.166367 180.226191 
L 67.274341 180.226646 
L 69.382315 180.226682 
L 71.490289 180.226685 
L 73.598263 180.226686 
L 75.706237 180.226686 
L 77.814211 180.226686 
L 79.922185 180.226686 
L 82.030159 180.226686 
L 84.138133 180.226686 
L 86.246107 180.226686 
L 88.354081 180.226686 
L 90.462055 180.226686 
L 92.570029 180.226686 
L 94.678003 180.226686 
L 96.785977 180.226686 
L 98.893951 180.226686 
L 101.001925 180.226686 
L 103.109899 180.226686 
L 105.217873 180.226686 
L 107.325847 180.226686 
L 109.433821 180.226686 
L 111.541795 180.226686 
L 113.649769 180.226686 
L 115.757743 180.226686 
L 117.865717 180.226686 
L 119.973691 180.226686 
L 122.081665 180.226686 
L 124.189639 180.226686 
L 126.297613 180.226686 
L 128.405587 180.226686 
L 130.513561 180.226686 
L 132.621535 180.226686 
L 134.729509 180.226686 
L 136.837483 180.226686 
L 138.945457 180.226686 
L 141.053431 180.226686 
L 143.161405 180.226686 
L 145.269379 180.226686 
L 147.377353 180.226686 
L 149.485327 180.226686 
L 151.593301 180.226686 
L 153.701275 180.226686 
L 155.809249 180.226686 
L 157.917223 180.226686 
L 160.025197 180.226686 
L 162.133171 180.226686 
L 164.241145 180.226686 
L 166.349119 180.226686 
L 168.457093 180.226686 
L 170.565067 180.226686 
L 172.673041 180.226686 
L 174.781015 180.226686 
L 176.888989 180.226686 
L 178.996963 180.226686 
L 181.104937 180.226686 
L 183.212911 180.226686 
L 185.320885 180.226686 
L 187.428859 180.226686 
L 189.536833 180.226686 
L 191.644807 180.226686 
L 193.752781 180.226686 
L 195.860755 180.226686 
L 197.968729 180.226686 
L 200.076703 180.226686 
L 202.184677 180.226686 
L 204.292651 180.226686 
L 206.400625 180.226686 
L 208.508599 180.226686 
L 210.616573 180.226686 
L 212.724547 180.226686 
L 214.832521 180.226686 
L 216.940495 180.226686 
L 219.048469 180.226686 
L 221.156443 180.226686 
L 223.264417 180.226686 
L 225.372391 180.226686 
L 227.480365 180.226686 
L 229.588339 180.226686 
L 231.696313 180.226686 
L 233.804287 180.226686 
L 235.912261 180.226686 
L 238.020235 180.226686 
L 240.128209 180.226686 
L 242.236183 180.226686 
L 244.344157 180.226686 
L 246.452131 180.226686 
L 248.560105 180.226686 
L 250.668079 180.226686 
L 252.776053 180.226686 
L 254.884027 180.226686 
L 256.992001 180.226686 
L 259.099975 180.226686 
L 261.207949 180.226686 
L 263.315923 180.226686 
L 265.423897 180.226686 
" clip-path="url(#p662ddc62db)" style="fill: none; stroke: #1f77b4; stroke-width: 2; stroke-linecap: square"/>
   </g>
   <g id="line2d_16">
    <path d="M 56.734471 173.480789 
L 58.842445 171.1074 
L 60.950419 173.195746 
L 63.058393 174.767885 
L 65.166367 176.374174 
L 67.274341 177.645519 
L 69.382315 178.584882 
L 71.490289 179.223497 
L 73.598263 179.633596 
L 75.706237 179.885077 
L 77.814211 180.033973 
L 79.922185 180.119748 
L 82.030159 180.168119 
L 84.138133 180.194944 
L 86.246107 180.209625 
L 88.354081 180.217578 
L 90.462055 180.221849 
L 92.570029 180.224129 
L 94.678003 180.225339 
L 96.785977 180.225978 
L 98.893951 180.226315 
L 101.001925 180.226492 
L 103.109899 180.226584 
L 105.217873 180.226633 
L 107.325847 180.226658 
L 109.433821 180.226671 
L 111.541795 180.226678 
L 113.649769 180.226682 
L 115.757743 180.226684 
L 117.865717 180.226685 
L 119.973691 180.226685 
L 122.081665 180.226685 
L 124.189639 180.226685 
L 126.297613 180.226685 
L 128.405587 180.226686 
L 130.513561 180.226686 
L 132.621535 180.226686 
L 134.729509 180.226686 
L 136.837483 180.226686 
L 138.945457 180.226686 
L 141.053431 180.226686 
L 143.161405 180.226686 
L 145.269379 180.226686 
L 147.377353 180.226686 
L 149.485327 180.226686 
L 151.593301 180.226686 
L 153.701275 180.226686 
L 155.809249 180.226686 
L 157.917223 180.226686 
L 160.025197 180.226686 
L 162.133171 180.226686 
L 164.241145 180.226686 
L 166.349119 180.226686 
L 168.457093 180.226686 
L 170.565067 180.226686 
L 172.673041 180.226686 
L 174.781015 180.226686 
L 176.888989 180.226686 
L 178.996963 180.226686 
L 181.104937 180.226686 
L 183.212911 180.226686 
L 185.320885 180.226686 
L 187.428859 180.226686 
L 189.536833 180.226686 
L 191.644807 180.226686 
L 193.752781 180.226686 
L 195.860755 180.226686 
L 197.968729 180.226686 
L 200.076703 180.226686 
L 202.184677 180.226686 
L 204.292651 180.226686 
L 206.400625 180.226686 
L 208.508599 180.226686 
L 210.616573 180.226686 
L 212.724547 180.226686 
L 214.832521 180.226686 
L 216.940495 180.226686 
L 219.048469 180.226686 
L 221.156443 180.226686 
L 223.264417 180.226686 
L 225.372391 180.226686 
L 227.480365 180.226686 
L 229.588339 180.226686 
L 231.696313 180.226686 
L 233.804287 180.226686 
L 235.912261 180.226686 
L 238.020235 180.226686 
L 240.128209 180.226686 
L 242.236183 180.226686 
L 244.344157 180.226686 
L 246.452131 180.226686 
L 248.560105 180.226686 
L 250.668079 180.226686 
L 252.776053 180.226686 
L 254.884027 180.226686 
L 256.992001 180.226686 
L 259.099975 180.226686 
L 261.207949 180.226686 
L 263.315923 180.226686 
L 265.423897 180.226686 
" clip-path="url(#p662ddc62db)" style="fill: none; stroke: #ff7f0e; stroke-width: 2; stroke-linecap: square"/>
   </g>
   <g id="line2d_17">
    <path d="M 56.734471 173.480789 
L 58.842445 172.674933 
L 60.950419 175.304035 
L 63.058393 177.002282 
L 65.166367 178.313823 
L 67.274341 179.152755 
L 69.382315 179.655696 
L 71.490289 179.93559 
L 73.598263 180.083288 
L 75.706237 180.15793 
L 77.814211 180.194419 
L 79.922185 180.211797 
L 82.030159 180.219908 
L 84.138133 180.223633 
L 86.246107 180.225322 
L 88.354081 180.226081 
L 90.462055 180.226419 
L 92.570029 180.226568 
L 94.678003 180.226634 
L 96.785977 180.226663 
L 98.893951 180.226676 
L 101.001925 180.226681 
L 103.109899 180.226684 
L 105.217873 180.226685 
L 107.325847 180.226685 
L 109.433821 180.226685 
L 111.541795 180.226686 
L 113.649769 180.226686 
L 115.757743 180.226686 
L 117.865717 180.226686 
L 119.973691 180.226686 
L 122.081665 180.226686 
L 124.189639 180.226686 
L 126.297613 180.226686 
L 128.405587 180.226686 
L 130.513561 180.226686 
L 132.621535 180.226686 
L 134.729509 180.226686 
L 136.837483 180.226686 
L 138.945457 180.226686 
L 141.053431 180.226686 
L 143.161405 180.226686 
L 145.269379 180.226686 
L 147.377353 180.226686 
L 149.485327 180.226686 
L 151.593301 180.226686 
L 153.701275 180.226686 
L 155.809249 180.226686 
L 157.917223 180.226686 
L 160.025197 180.226686 
L 162.133171 180.226686 
L 164.241145 180.226686 
L 166.349119 180.226686 
L 168.457093 180.226686 
L 170.565067 180.226686 
L 172.673041 180.226686 
L 174.781015 180.226686 
L 176.888989 180.226686 
L 178.996963 180.226686 
L 181.104937 180.226686 
L 183.212911 180.226686 
L 185.320885 180.226686 
L 187.428859 180.226686 
L 189.536833 180.226686 
L 191.644807 180.226686 
L 193.752781 180.226686 
L 195.860755 180.226686 
L 197.968729 180.226686 
L 200.076703 180.226686 
L 202.184677 180.226686 
L 204.292651 180.226686 
L 206.400625 180.226686 
L 208.508599 180.226686 
L 210.616573 180.226686 
L 212.724547 180.226686 
L 214.832521 180.226686 
L 216.940495 180.226686 
L 219.048469 180.226686 
L 221.156443 180.226686 
L 223.264417 180.226686 
L 225.372391 180.226686 
L 227.480365 180.226686 
L 229.588339 180.226686 
L 231.696313 180.226686 
L 233.804287 180.226686 
L 235.912261 180.226686 
L 238.020235 180.226686 
L 240.128209 180.226686 
L 242.236183 180.226686 
L 244.344157 180.226686 
L 246.452131 180.226686 
L 248.560105 180.226686 
L 250.668079 180.226686 
L 252.776053 180.226686 
L 254.884027 180.226686 
L 256.992001 180.226686 
L 259.099975 180.226686 
L 261.207949 180.226686 
L 263.315923 180.226686 
L 265.423897 180.226686 
" clip-path="url(#p662ddc62db)" style="fill: none; stroke: #2ca02c; stroke-width: 2; stroke-linecap: square"/>
   </g>
   <g id="line2d_18">
    <path d="M 56.734471 173.480789 
L 58.842445 167.60643 
L 60.950419 167.17128 
L 63.058393 166.575891 
L 65.166367 167.175665 
L 67.274341 168.320675 
L 69.382315 169.873884 
L 71.490289 171.552976 
L 73.598263 173.180234 
L 75.706237 174.640968 
L 77.814211 175.885259 
L 79.922185 176.90501 
L 82.030159 177.717016 
L 84.138133 178.349546 
L 86.246107 178.833988 
L 88.354081 179.200135 
L 90.462055 179.474006 
L 92.570029 179.677172 
L 94.678003 179.826895 
L 96.785977 179.93665 
L 98.893951 180.016763 
L 101.001925 180.075037 
L 103.109899 180.117307 
L 105.217873 180.147896 
L 107.325847 180.169991 
L 109.433821 180.185926 
L 111.541795 180.197403 
L 113.649769 180.205661 
L 115.757743 180.211598 
L 117.865717 180.215863 
L 119.973691 180.218925 
L 122.081665 180.221122 
L 124.189639 180.222698 
L 126.297613 180.223829 
L 128.405587 180.224639 
L 130.513561 180.225219 
L 132.621535 180.225635 
L 134.729509 180.225933 
L 136.837483 180.226147 
L 138.945457 180.2263 
L 141.053431 180.226409 
L 143.161405 180.226488 
L 145.269379 180.226544 
L 147.377353 180.226584 
L 149.485327 180.226613 
L 151.593301 180.226634 
L 153.701275 180.226648 
L 155.809249 180.226659 
L 157.917223 180.226667 
L 160.025197 180.226672 
L 162.133171 180.226676 
L 164.241145 180.226679 
L 166.349119 180.226681 
L 168.457093 180.226682 
L 170.565067 180.226683 
L 172.673041 180.226684 
L 174.781015 180.226684 
L 176.888989 180.226685 
L 178.996963 180.226685 
L 181.104937 180.226685 
L 183.212911 180.226685 
L 185.320885 180.226685 
L 187.428859 180.226685 
L 189.536833 180.226685 
L 191.644807 180.226685 
L 193.752781 180.226685 
L 195.860755 180.226686 
L 197.968729 180.226686 
L 200.076703 180.226686 
L 202.184677 180.226686 
L 204.292651 180.226686 
L 206.400625 180.226686 
L 208.508599 180.226686 
L 210.616573 180.226686 
L 212.724547 180.226686 
L 214.832521 180.226686 
L 216.940495 180.226686 
L 219.048469 180.226686 
L 221.156443 180.226686 
L 223.264417 180.226686 
L 225.372391 180.226686 
L 227.480365 180.226686 
L 229.588339 180.226686 
L 231.696313 180.226686 
L 233.804287 180.226686 
L 235.912261 180.226686 
L 238.020235 180.226686 
L 240.128209 180.226686 
L 242.236183 180.226686 
L 244.344157 180.226686 
L 246.452131 180.226686 
L 248.560105 180.226686 
L 250.668079 180.226686 
L 252.776053 180.226686 
L 254.884027 180.226686 
L 256.992001 180.226686 
L 259.099975 180.226686 
L 261.207949 180.226686 
L 263.315923 180.226686 
L 265.423897 180.226686 
" clip-path="url(#p662ddc62db)" style="fill: none; stroke: #d62728; stroke-width: 2; stroke-linecap: square"/>
   </g>
   <g id="line2d_19">
    <path d="M 56.734471 173.480789 
L 58.842445 173.744602 
L 60.950419 176.533579 
L 63.058393 178.116331 
L 65.166367 179.137969 
L 67.274341 179.696641 
L 69.382315 179.982849 
L 71.490289 180.119309 
L 73.598263 180.181052 
L 75.706237 180.207826 
L 77.814211 180.219061 
L 79.922185 180.223657 
L 82.030159 180.225499 
L 84.138133 180.226225 
L 86.246107 180.226509 
L 88.354081 180.226618 
L 90.462055 180.22666 
L 92.570029 180.226676 
L 94.678003 180.226682 
L 96.785977 180.226684 
L 98.893951 180.226685 
L 101.001925 180.226685 
L 103.109899 180.226685 
L 105.217873 180.226686 
L 107.325847 180.226686 
L 109.433821 180.226686 
L 111.541795 180.226686 
L 113.649769 180.226686 
L 115.757743 180.226686 
L 117.865717 180.226686 
L 119.973691 180.226686 
L 122.081665 180.226686 
L 124.189639 180.226686 
L 126.297613 180.226686 
L 128.405587 180.226686 
L 130.513561 180.226686 
L 132.621535 180.226686 
L 134.729509 180.226686 
L 136.837483 180.226686 
L 138.945457 180.226686 
L 141.053431 180.226686 
L 143.161405 180.226686 
L 145.269379 180.226686 
L 147.377353 180.226686 
L 149.485327 180.226686 
L 151.593301 180.226686 
L 153.701275 180.226686 
L 155.809249 180.226686 
L 157.917223 180.226686 
L 160.025197 180.226686 
L 162.133171 180.226686 
L 164.241145 180.226686 
L 166.349119 180.226686 
L 168.457093 180.226686 
L 170.565067 180.226686 
L 172.673041 180.226686 
L 174.781015 180.226686 
L 176.888989 180.226686 
L 178.996963 180.226686 
L 181.104937 180.226686 
L 183.212911 180.226686 
L 185.320885 180.226686 
L 187.428859 180.226686 
L 189.536833 180.226686 
L 191.644807 180.226686 
L 193.752781 180.226686 
L 195.860755 180.226686 
L 197.968729 180.226686 
L 200.076703 180.226686 
L 202.184677 180.226686 
L 204.292651 180.226686 
L 206.400625 180.226686 
L 208.508599 180.226686 
L 210.616573 180.226686 
L 212.724547 180.226686 
L 214.832521 180.226686 
L 216.940495 180.226686 
L 219.048469 180.226686 
L 221.156443 180.226686 
L 223.264417 180.226686 
L 225.372391 180.226686 
L 227.480365 180.226686 
L 229.588339 180.226686 
L 231.696313 180.226686 
L 233.804287 180.226686 
L 235.912261 180.226686 
L 238.020235 180.226686 
L 240.128209 180.226686 
L 242.236183 180.226686 
L 244.344157 180.226686 
L 246.452131 180.226686 
L 248.560105 180.226686 
L 250.668079 180.226686 
L 252.776053 180.226686 
L 254.884027 180.226686 
L 256.992001 180.226686 
L 259.099975 180.226686 
L 261.207949 180.226686 
L 263.315923 180.226686 
L 265.423897 180.226686 
" clip-path="url(#p662ddc62db)" style="fill: none; stroke: #9467bd; stroke-width: 2; stroke-linecap: square"/>
   </g>
   <g id="line2d_20">
    <path d="M 56.734471 173.480789 
L 58.842445 168.67204 
L 60.950419 169.19347 
L 63.058393 169.587387 
L 65.166367 170.859569 
L 67.274341 172.367453 
L 69.382315 173.947744 
L 71.490289 175.397004 
L 73.598263 176.626473 
L 75.706237 177.609059 
L 77.814211 178.361125 
L 79.922185 178.918121 
L 82.030159 179.320421 
L 84.138133 179.605399 
L 86.246107 179.804232 
L 88.354081 179.941316 
L 90.462055 180.034939 
L 92.570029 180.0984 
L 94.678003 180.141159 
L 96.785977 180.169828 
L 98.893951 180.188975 
L 101.001925 180.201722 
L 103.109899 180.210187 
L 105.217873 180.215795 
L 107.325847 180.219505 
L 109.433821 180.221955 
L 111.541795 180.223571 
L 113.649769 180.224637 
L 115.757743 180.225338 
L 117.865717 180.2258 
L 119.973691 180.226104 
L 122.081665 180.226303 
L 124.189639 180.226435 
L 126.297613 180.226521 
L 128.405587 180.226577 
L 130.513561 180.226615 
L 132.621535 180.226639 
L 134.729509 180.226655 
L 136.837483 180.226665 
L 138.945457 180.226672 
L 141.053431 180.226677 
L 143.161405 180.22668 
L 145.269379 180.226682 
L 147.377353 180.226683 
L 149.485327 180.226684 
L 151.593301 180.226685 
L 153.701275 180.226685 
L 155.809249 180.226685 
L 157.917223 180.226685 
L 160.025197 180.226685 
L 162.133171 180.226685 
L 164.241145 180.226685 
L 166.349119 180.226686 
L 168.457093 180.226686 
L 170.565067 180.226686 
L 172.673041 180.226686 
L 174.781015 180.226686 
L 176.888989 180.226686 
L 178.996963 180.226686 
L 181.104937 180.226686 
L 183.212911 180.226686 
L 185.320885 180.226686 
L 187.428859 180.226686 
L 189.536833 180.226686 
L 191.644807 180.226686 
L 193.752781 180.226686 
L 195.860755 180.226686 
L 197.968729 180.226686 
L 200.076703 180.226686 
L 202.184677 180.226686 
L 204.292651 180.226686 
L 206.400625 180.226686 
L 208.508599 180.226686 
L 210.616573 180.226686 
L 212.724547 180.226686 
L 214.832521 180.226686 
L 216.940495 180.226686 
L 219.048469 180.226686 
L 221.156443 180.226686 
L 223.264417 180.226686 
L 225.372391 180.226686 
L 227.480365 180.226686 
L 229.588339 180.226686 
L 231.696313 180.226686 
L 233.804287 180.226686 
L 235.912261 180.226686 
L 238.020235 180.226686 
L 240.128209 180.226686 
L 242.236183 180.226686 
L 244.344157 180.226686 
L 246.452131 180.226686 
L 248.560105 180.226686 
L 250.668079 180.226686 
L 252.776053 180.226686 
L 254.884027 180.226686 
L 256.992001 180.226686 
L 259.099975 180.226686 
L 261.207949 180.226686 
L 263.315923 180.226686 
L 265.423897 180.226686 
" clip-path="url(#p662ddc62db)" style="fill: none; stroke: #8c564b; stroke-width: 2; stroke-linecap: square"/>
   </g>
   <g id="line2d_21">
    <path d="M 56.734471 173.480789 
L 58.842445 162.562871 
L 60.950419 155.354327 
L 63.058393 144.711428 
L 65.166367 133.611512 
L 67.274341 121.577566 
L 69.382315 109.639238 
L 71.490289 98.150469 
L 73.598263 87.506767 
L 75.706237 77.879746 
L 77.814211 69.348452 
L 79.922185 61.899163 
L 82.030159 55.469113 
L 84.138133 49.966275 
L 86.246107 45.287351 
L 88.354081 41.328298 
L 90.462055 37.990437 
L 92.570029 35.183922 
L 94.678003 32.828799 
L 96.785977 30.85539 
L 98.893951 29.203445 
L 101.001925 27.821648 
L 103.109899 26.666393 
L 105.217873 25.700789 
L 107.325847 24.893806 
L 109.433821 24.219391 
L 111.541795 23.655678 
L 113.649769 23.184495 
L 115.757743 22.790591 
L 117.865717 22.461158 
L 119.973691 22.185644 
L 122.081665 21.955092 
L 124.189639 21.762186 
L 126.297613 21.600627 
L 128.405587 21.46535 
L 130.513561 21.351975 
L 132.621535 21.257017 
L 134.729509 21.177434 
L 136.837483 21.110692 
L 138.945457 21.054699 
L 141.053431 21.007713 
L 143.161405 20.968238 
L 145.269379 20.935202 
L 147.377353 20.907407 
L 149.485327 20.884011 
L 151.593301 20.864397 
L 153.701275 20.847949 
L 155.809249 20.834104 
L 157.917223 20.822424 
L 160.025197 20.812608 
L 162.133171 20.804358 
L 164.241145 20.797462 
L 166.349119 20.791639 
L 168.457093 20.786713 
L 170.565067 20.782579 
L 172.673041 20.779114 
L 174.781015 20.776159 
L 176.888989 20.773696 
L 178.996963 20.77162 
L 181.104937 20.769861 
L 183.212911 20.768401 
L 185.320885 20.767134 
L 187.428859 20.766079 
L 189.536833 20.765199 
L 191.644807 20.764443 
L 193.752781 20.763845 
L 195.860755 20.763299 
L 197.968729 20.76286 
L 200.076703 20.762473 
L 202.184677 20.762156 
L 204.292651 20.761875 
L 206.400625 20.761646 
L 208.508599 20.76147 
L 210.616573 20.761312 
L 212.724547 20.761153 
L 214.832521 20.761048 
L 216.940495 20.76096 
L 219.048469 20.760872 
L 221.156443 20.760819 
L 223.264417 20.760731 
L 225.372391 20.760678 
L 227.480365 20.760643 
L 229.588339 20.760626 
L 231.696313 20.76059 
L 233.804287 20.760573 
L 235.912261 20.760555 
L 238.020235 20.760538 
L 240.128209 20.76052 
L 242.236183 20.760502 
L 244.344157 20.760467 
L 246.452131 20.760467 
L 248.560105 20.76045 
L 250.668079 20.760432 
L 252.776053 20.760432 
L 254.884027 20.760414 
L 256.992001 20.760414 
L 259.099975 20.760414 
L 261.207949 20.760414 
L 263.315923 20.760397 
L 265.423897 20.760414 
" clip-path="url(#p662ddc62db)" style="fill: none; stroke: #e377c2; stroke-width: 2; stroke-linecap: square"/>
   </g>
   <g id="patch_3">
    <path d="M 46.3 188.2 
L 46.3 12.787082 
" style="fill: none; stroke: #000000; stroke-width: 0.8; stroke-linejoin: miter; stroke-linecap: square"/>
   </g>
   <g id="patch_4">
    <path d="M 275.858368 188.2 
L 275.858368 12.787082 
" style="fill: none; stroke: #000000; stroke-width: 0.8; stroke-linejoin: miter; stroke-linecap: square"/>
   </g>
   <g id="patch_5">
    <path d="M 46.3 188.2 
L 275.858368 188.2 
" style="fill: none; stroke: #000000; stroke-width: 0.8; stroke-linejoin: miter; stroke-linecap: square"/>
   </g>
   <g id="patch_6">
    <path d="M 46.3 12.787082 
L 275.858368 12.787082 
" style="fill: none; stroke: #000000; stroke-width: 0.8; stroke-linejoin: miter; stroke-linecap: square"/>
   </g>
   <g id="legend_1">
    <g id="patch_7">
     <path d="M 217.770868 153.366979 
L 268.858368 153.366979 
Q 270.858368 153.366979 270.858368 151.366979 
L 270.858368 49.620104 
Q 270.858368 47.620104 268.858368 47.620104 
L 217.770868 47.620104 
Q 215.770868 47.620104 215.770868 49.620104 
L 215.770868 151.366979 
Q 215.770868 153.366979 217.770868 153.366979 
z
" style="fill: #ffffff; opacity: 0.8; stroke: #cccccc; stroke-linejoin: miter"/>
    </g>
    <g id="line2d_22">
     <path d="M 219.770868 55.718541 
L 229.770868 55.718541 
L 239.770868 55.718541 
" style="fill: none; stroke: #1f77b4; stroke-width: 2; stroke-linecap: square"/>
    </g>
    <g id="text_15">
     <!-- 000 -->
     <g transform="translate(247.770868 59.218541) scale(0.1 -0.1)">
      <use xlink:href="#DejaVuSans-30"/>
      <use xlink:href="#DejaVuSans-30" x="63.623047"/>
      <use xlink:href="#DejaVuSans-30" x="127.246094"/>
     </g>
    </g>
    <g id="line2d_23">
     <path d="M 219.770868 70.396666 
L 229.770868 70.396666 
L 239.770868 70.396666 
" style="fill: none; stroke: #ff7f0e; stroke-width: 2; stroke-linecap: square"/>
    </g>
    <g id="text_16">
     <!-- 001 -->
     <g transform="translate(247.770868 73.896666) scale(0.1 -0.1)">
      <use xlink:href="#DejaVuSans-30"/>
      <use xlink:href="#DejaVuSans-30" x="63.623047"/>
      <use xlink:href="#DejaVuSans-31" x="127.246094"/>
     </g>
    </g>
    <g id="line2d_24">
     <path d="M 219.770868 85.074791 
L 229.770868 85.074791 
L 239.770868 85.074791 
" style="fill: none; stroke: #2ca02c; stroke-width: 2; stroke-linecap: square"/>
    </g>
    <g id="text_17">
     <!-- 010 -->
     <g transform="translate(247.770868 88.574791) scale(0.1 -0.1)">
      <use xlink:href="#DejaVuSans-30"/>
      <use xlink:href="#DejaVuSans-31" x="63.623047"/>
      <use xlink:href="#DejaVuSans-30" x="127.246094"/>
     </g>
    </g>
    <g id="line2d_25">
     <path d="M 219.770868 99.752916 
L 229.770868 99.752916 
L 239.770868 99.752916 
" style="fill: none; stroke: #d62728; stroke-width: 2; stroke-linecap: square"/>
    </g>
    <g id="text_18">
     <!-- 011 -->
     <g transform="translate(247.770868 103.252916) scale(0.1 -0.1)">
      <use xlink:href="#DejaVuSans-30"/>
      <use xlink:href="#DejaVuSans-31" x="63.623047"/>
      <use xlink:href="#DejaVuSans-31" x="127.246094"/>
     </g>
    </g>
    <g id="line2d_26">
     <path d="M 219.770868 114.431041 
L 229.770868 114.431041 
L 239.770868 114.431041 
" style="fill: none; stroke: #9467bd; stroke-width: 2; stroke-linecap: square"/>
    </g>
    <g id="text_19">
     <!-- 100 -->
     <g transform="translate(247.770868 117.931041) scale(0.1 -0.1)">
      <use xlink:href="#DejaVuSans-31"/>
      <use xlink:href="#DejaVuSans-30" x="63.623047"/>
      <use xlink:href="#DejaVuSans-30" x="127.246094"/>
     </g>
    </g>
    <g id="line2d_27">
     <path d="M 219.770868 129.109166 
L 229.770868 129.109166 
L 239.770868 129.109166 
" style="fill: none; stroke: #8c564b; stroke-width: 2; stroke-linecap: square"/>
    </g>
    <g id="text_20">
     <!-- 101 -->
     <g transform="translate(247.770868 132.609166) scale(0.1 -0.1)">
      <use xlink:href="#DejaVuSans-31"/>
      <use xlink:href="#DejaVuSans-30" x="63.623047"/>
      <use xlink:href="#DejaVuSans-31" x="127.246094"/>
     </g>
    </g>
    <g id="line2d_28">
     <path d="M 219.770868 143.787291 
L 229.770868 143.787291 
L 239.770868 143.787291 
" style="fill: none; stroke: #e377c2; stroke-width: 2; stroke-linecap: square"/>
    </g>
    <g id="text_21">
     <!-- 110 -->
     <g transform="translate(247.770868 147.287291) scale(0.1 -0.1)">
      <use xlink:href="#DejaVuSans-31"/>
      <use xlink:href="#DejaVuSans-31" x="63.623047"/>
      <use xlink:href="#DejaVuSans-30" x="127.246094"/>
     </g>
    </g>
   </g>
  </g>
 </g>
 <defs>
  <clipPath id="p662ddc62db">
   <rect x="46.3" y="12.787082" width="229.558368" height="175.412918"/>
  </clipPath>
 </defs>
</svg>
