<?xml version="1.0" encoding="utf-8" standalone="no"?>
<!DOCTYPE svg PUBLIC "-//W3C//DTD SVG 1.1//EN"
  "http://www.w3.org/Graphics/SVG/1.1/DTD/svg11.dtd">
<svg xmlns:xlink="http://www.w3.org/1999/xlink" width="288pt" height="216pt" viewBox="0 0 288 216" xmlns="http://www.w3.org/2000/svg" version="1.1">
 <metadata>
  <rdf:RDF xmlns:dc="http://purl.org/dc/elements/1.1/" xmlns:cc="http://creativecommons.org/ns#" xmlns:rdf="http://www.w3.org/1999/02/22-rdf-syntax-ns#">
   <cc:Work>
    <dc:type rdf:resource="http://purl.org/dc/dcmitype/StillImage"/>
    <dc:date>2024-05-21T20:49:14.298823</dc:date>
    <dc:format>image/svg+xml</dc:format>
    <dc:creator>
     <cc:Agent>
      <dc:title>Matplotlib v3.6.2, https://matplotlib.org/</dc:title>
     </cc:Agent>
    </dc:creator>
   </cc:Work>
  </rdf:RDF>
 </metadata>
 <defs>
  <style type="text/css">*{stroke-linejoin: round; stroke-linecap: butt}</style>
 </defs>
 <g id="figure_1">
  <g id="patch_1">
   <path d="M 0 216 
L 288 216 
L 288 0 
L 0 0 
L 0 216 
z
" style="fill: none"/>
  </g>
  <g id="axes_1">
   <g id="patch_2">
    <path d="M 46.3 188.2 
L 276.891953 188.2 
L 276.891953 12.836983 
L 46.3 12.836983 
z
" style="fill: #ffffff"/>
   </g>
   <g id="matplotlib.axis_1">
    <g id="xtick_1">
     <g id="line2d_1">
      <defs>
       <path id="mb86101c53c" d="M 0 0 
L 0 3.5 
" style="stroke: #000000; stroke-width: 0.8"/>
      </defs>
      <g>
       <use xlink:href="#mb86101c53c" x="56.781452" y="188.2" style="stroke: #000000; stroke-width: 0.8"/>
      </g>
     </g>
     <g id="text_1">
      <!-- 0 -->
      <g transform="translate(53.600202 202.798437) scale(0.1 -0.1)">
       <defs>
        <path id="DejaVuSans-30" d="M 2034 4250 
Q 1547 4250 1301 3770 
Q 1056 3291 1056 2328 
Q 1056 1369 1301 889 
Q 1547 409 2034 409 
Q 2525 409 2770 889 
Q 3016 1369 3016 2328 
Q 3016 3291 2770 3770 
Q 2525 4250 2034 4250 
z
M 2034 4750 
Q 2819 4750 3233 4129 
Q 3647 3509 3647 2328 
Q 3647 1150 3233 529 
Q 2819 -91 2034 -91 
Q 1250 -91 836 529 
Q 422 1150 422 2328 
Q 422 3509 836 4129 
Q 1250 4750 2034 4750 
z
" transform="scale(0.015625)"/>
       </defs>
       <use xlink:href="#DejaVuSans-30"/>
      </g>
     </g>
    </g>
    <g id="xtick_2">
     <g id="line2d_2">
      <g>
       <use xlink:href="#mb86101c53c" x="99.562891" y="188.2" style="stroke: #000000; stroke-width: 0.8"/>
      </g>
     </g>
     <g id="text_2">
      <!-- 10 -->
      <g transform="translate(93.200391 202.798437) scale(0.1 -0.1)">
       <defs>
        <path id="DejaVuSans-31" d="M 794 531 
L 1825 531 
L 1825 4091 
L 703 3866 
L 703 4441 
L 1819 4666 
L 2450 4666 
L 2450 531 
L 3481 531 
L 3481 0 
L 794 0 
L 794 531 
z
" transform="scale(0.015625)"/>
       </defs>
       <use xlink:href="#DejaVuSans-31"/>
       <use xlink:href="#DejaVuSans-30" x="63.623047"/>
      </g>
     </g>
    </g>
    <g id="xtick_3">
     <g id="line2d_3">
      <g>
       <use xlink:href="#mb86101c53c" x="142.344329" y="188.2" style="stroke: #000000; stroke-width: 0.8"/>
      </g>
     </g>
     <g id="text_3">
      <!-- 20 -->
      <g transform="translate(135.981829 202.798437) scale(0.1 -0.1)">
       <defs>
        <path id="DejaVuSans-32" d="M 1228 531 
L 3431 531 
L 3431 0 
L 469 0 
L 469 531 
Q 828 903 1448 1529 
Q 2069 2156 2228 2338 
Q 2531 2678 2651 2914 
Q 2772 3150 2772 3378 
Q 2772 3750 2511 3984 
Q 2250 4219 1831 4219 
Q 1534 4219 1204 4116 
Q 875 4013 500 3803 
L 500 4441 
Q 881 4594 1212 4672 
Q 1544 4750 1819 4750 
Q 2544 4750 2975 4387 
Q 3406 4025 3406 3419 
Q 3406 3131 3298 2873 
Q 3191 2616 2906 2266 
Q 2828 2175 2409 1742 
Q 1991 1309 1228 531 
z
" transform="scale(0.015625)"/>
       </defs>
       <use xlink:href="#DejaVuSans-32"/>
       <use xlink:href="#DejaVuSans-30" x="63.623047"/>
      </g>
     </g>
    </g>
    <g id="xtick_4">
     <g id="line2d_4">
      <g>
       <use xlink:href="#mb86101c53c" x="185.125767" y="188.2" style="stroke: #000000; stroke-width: 0.8"/>
      </g>
     </g>
     <g id="text_4">
      <!-- 30 -->
      <g transform="translate(178.763267 202.798437) scale(0.1 -0.1)">
       <defs>
        <path id="DejaVuSans-33" d="M 2597 2516 
Q 3050 2419 3304 2112 
Q 3559 1806 3559 1356 
Q 3559 666 3084 287 
Q 2609 -91 1734 -91 
Q 1441 -91 1130 -33 
Q 819 25 488 141 
L 488 750 
Q 750 597 1062 519 
Q 1375 441 1716 441 
Q 2309 441 2620 675 
Q 2931 909 2931 1356 
Q 2931 1769 2642 2001 
Q 2353 2234 1838 2234 
L 1294 2234 
L 1294 2753 
L 1863 2753 
Q 2328 2753 2575 2939 
Q 2822 3125 2822 3475 
Q 2822 3834 2567 4026 
Q 2313 4219 1838 4219 
Q 1578 4219 1281 4162 
Q 984 4106 628 3988 
L 628 4550 
Q 988 4650 1302 4700 
Q 1616 4750 1894 4750 
Q 2613 4750 3031 4423 
Q 3450 4097 3450 3541 
Q 3450 3153 3228 2886 
Q 3006 2619 2597 2516 
z
" transform="scale(0.015625)"/>
       </defs>
       <use xlink:href="#DejaVuSans-33"/>
       <use xlink:href="#DejaVuSans-30" x="63.623047"/>
      </g>
     </g>
    </g>
    <g id="xtick_5">
     <g id="line2d_5">
      <g>
       <use xlink:href="#mb86101c53c" x="227.907206" y="188.2" style="stroke: #000000; stroke-width: 0.8"/>
      </g>
     </g>
     <g id="text_5">
      <!-- 40 -->
      <g transform="translate(221.544706 202.798437) scale(0.1 -0.1)">
       <defs>
        <path id="DejaVuSans-34" d="M 2419 4116 
L 825 1625 
L 2419 1625 
L 2419 4116 
z
M 2253 4666 
L 3047 4666 
L 3047 1625 
L 3713 1625 
L 3713 1100 
L 3047 1100 
L 3047 0 
L 2419 0 
L 2419 1100 
L 313 1100 
L 313 1709 
L 2253 4666 
z
" transform="scale(0.015625)"/>
       </defs>
       <use xlink:href="#DejaVuSans-34"/>
       <use xlink:href="#DejaVuSans-30" x="63.623047"/>
      </g>
     </g>
    </g>
    <g id="xtick_6">
     <g id="line2d_6">
      <g>
       <use xlink:href="#mb86101c53c" x="270.688644" y="188.2" style="stroke: #000000; stroke-width: 0.8"/>
      </g>
     </g>
     <g id="text_6">
      <!-- 50 -->
      <g transform="translate(264.326144 202.798437) scale(0.1 -0.1)">
       <defs>
        <path id="DejaVuSans-35" d="M 691 4666 
L 3169 4666 
L 3169 4134 
L 1269 4134 
L 1269 2991 
Q 1406 3038 1543 3061 
Q 1681 3084 1819 3084 
Q 2600 3084 3056 2656 
Q 3513 2228 3513 1497 
Q 3513 744 3044 326 
Q 2575 -91 1722 -91 
Q 1428 -91 1123 -41 
Q 819 9 494 109 
L 494 744 
Q 775 591 1075 516 
Q 1375 441 1709 441 
Q 2250 441 2565 725 
Q 2881 1009 2881 1497 
Q 2881 1984 2565 2268 
Q 2250 2553 1709 2553 
Q 1456 2553 1204 2497 
Q 953 2441 691 2322 
L 691 4666 
z
" transform="scale(0.015625)"/>
       </defs>
       <use xlink:href="#DejaVuSans-35"/>
       <use xlink:href="#DejaVuSans-30" x="63.623047"/>
      </g>
     </g>
    </g>
   </g>
   <g id="matplotlib.axis_2">
    <g id="ytick_1">
     <g id="line2d_7">
      <defs>
       <path id="m3a8e6f7f25" d="M 0 0 
L -3.5 0 
" style="stroke: #000000; stroke-width: 0.8"/>
      </defs>
      <g>
       <use xlink:href="#m3a8e6f7f25" x="46.3" y="180.228954" style="stroke: #000000; stroke-width: 0.8"/>
      </g>
     </g>
     <g id="text_7">
      <!-- 0.000 -->
      <g transform="translate(10.671875 184.028173) scale(0.1 -0.1)">
       <defs>
        <path id="DejaVuSans-2e" d="M 684 794 
L 1344 794 
L 1344 0 
L 684 0 
L 684 794 
z
" transform="scale(0.015625)"/>
       </defs>
       <use xlink:href="#DejaVuSans-30"/>
       <use xlink:href="#DejaVuSans-2e" x="63.623047"/>
       <use xlink:href="#DejaVuSans-30" x="95.410156"/>
       <use xlink:href="#DejaVuSans-30" x="159.033203"/>
       <use xlink:href="#DejaVuSans-30" x="222.65625"/>
      </g>
     </g>
    </g>
    <g id="ytick_2">
     <g id="line2d_8">
      <g>
       <use xlink:href="#m3a8e6f7f25" x="46.3" y="156.617368" style="stroke: #000000; stroke-width: 0.8"/>
      </g>
     </g>
     <g id="text_8">
      <!-- 0.005 -->
      <g transform="translate(10.671875 160.416587) scale(0.1 -0.1)">
       <use xlink:href="#DejaVuSans-30"/>
       <use xlink:href="#DejaVuSans-2e" x="63.623047"/>
       <use xlink:href="#DejaVuSans-30" x="95.410156"/>
       <use xlink:href="#DejaVuSans-30" x="159.033203"/>
       <use xlink:href="#DejaVuSans-35" x="222.65625"/>
      </g>
     </g>
    </g>
    <g id="ytick_3">
     <g id="line2d_9">
      <g>
       <use xlink:href="#m3a8e6f7f25" x="46.3" y="133.005782" style="stroke: #000000; stroke-width: 0.8"/>
      </g>
     </g>
     <g id="text_9">
      <!-- 0.010 -->
      <g transform="translate(10.671875 136.805001) scale(0.1 -0.1)">
       <use xlink:href="#DejaVuSans-30"/>
       <use xlink:href="#DejaVuSans-2e" x="63.623047"/>
       <use xlink:href="#DejaVuSans-30" x="95.410156"/>
       <use xlink:href="#DejaVuSans-31" x="159.033203"/>
       <use xlink:href="#DejaVuSans-30" x="222.65625"/>
      </g>
     </g>
    </g>
    <g id="ytick_4">
     <g id="line2d_10">
      <g>
       <use xlink:href="#m3a8e6f7f25" x="46.3" y="109.394196" style="stroke: #000000; stroke-width: 0.8"/>
      </g>
     </g>
     <g id="text_10">
      <!-- 0.015 -->
      <g transform="translate(10.671875 113.193415) scale(0.1 -0.1)">
       <use xlink:href="#DejaVuSans-30"/>
       <use xlink:href="#DejaVuSans-2e" x="63.623047"/>
       <use xlink:href="#DejaVuSans-30" x="95.410156"/>
       <use xlink:href="#DejaVuSans-31" x="159.033203"/>
       <use xlink:href="#DejaVuSans-35" x="222.65625"/>
      </g>
     </g>
    </g>
    <g id="ytick_5">
     <g id="line2d_11">
      <g>
       <use xlink:href="#m3a8e6f7f25" x="46.3" y="85.78261" style="stroke: #000000; stroke-width: 0.8"/>
      </g>
     </g>
     <g id="text_11">
      <!-- 0.020 -->
      <g transform="translate(10.671875 89.581829) scale(0.1 -0.1)">
       <use xlink:href="#DejaVuSans-30"/>
       <use xlink:href="#DejaVuSans-2e" x="63.623047"/>
       <use xlink:href="#DejaVuSans-30" x="95.410156"/>
       <use xlink:href="#DejaVuSans-32" x="159.033203"/>
       <use xlink:href="#DejaVuSans-30" x="222.65625"/>
      </g>
     </g>
    </g>
    <g id="ytick_6">
     <g id="line2d_12">
      <g>
       <use xlink:href="#m3a8e6f7f25" x="46.3" y="62.171024" style="stroke: #000000; stroke-width: 0.8"/>
      </g>
     </g>
     <g id="text_12">
      <!-- 0.025 -->
      <g transform="translate(10.671875 65.970243) scale(0.1 -0.1)">
       <use xlink:href="#DejaVuSans-30"/>
       <use xlink:href="#DejaVuSans-2e" x="63.623047"/>
       <use xlink:href="#DejaVuSans-30" x="95.410156"/>
       <use xlink:href="#DejaVuSans-32" x="159.033203"/>
       <use xlink:href="#DejaVuSans-35" x="222.65625"/>
      </g>
     </g>
    </g>
    <g id="ytick_7">
     <g id="line2d_13">
      <g>
       <use xlink:href="#m3a8e6f7f25" x="46.3" y="38.559438" style="stroke: #000000; stroke-width: 0.8"/>
      </g>
     </g>
     <g id="text_13">
      <!-- 0.030 -->
      <g transform="translate(10.671875 42.358657) scale(0.1 -0.1)">
       <use xlink:href="#DejaVuSans-30"/>
       <use xlink:href="#DejaVuSans-2e" x="63.623047"/>
       <use xlink:href="#DejaVuSans-30" x="95.410156"/>
       <use xlink:href="#DejaVuSans-33" x="159.033203"/>
       <use xlink:href="#DejaVuSans-30" x="222.65625"/>
      </g>
     </g>
    </g>
    <g id="ytick_8">
     <g id="line2d_14">
      <g>
       <use xlink:href="#m3a8e6f7f25" x="46.3" y="14.947852" style="stroke: #000000; stroke-width: 0.8"/>
      </g>
     </g>
     <g id="text_14">
      <!-- 0.035 -->
      <g transform="translate(10.671875 18.747071) scale(0.1 -0.1)">
       <use xlink:href="#DejaVuSans-30"/>
       <use xlink:href="#DejaVuSans-2e" x="63.623047"/>
       <use xlink:href="#DejaVuSans-30" x="95.410156"/>
       <use xlink:href="#DejaVuSans-33" x="159.033203"/>
       <use xlink:href="#DejaVuSans-35" x="222.65625"/>
      </g>
     </g>
    </g>
   </g>
   <g id="line2d_15">
    <path d="M 56.781452 173.482786 
L 61.059596 178.571503 
L 65.33774 180.129808 
L 69.615884 180.222233 
L 73.894028 180.228459 
L 78.172172 180.228914 
L 82.450315 180.22895 
L 86.728459 180.228953 
L 91.006603 180.228954 
L 95.284747 180.228954 
L 99.562891 180.228954 
L 103.841035 180.228954 
L 108.119178 180.228954 
L 112.397322 180.228954 
L 116.675466 180.228954 
L 120.95361 180.228954 
L 125.231754 180.228954 
L 129.509898 180.228954 
L 133.788041 180.228954 
L 138.066185 180.228954 
L 142.344329 180.228954 
L 146.622473 180.228954 
L 150.900617 180.228954 
L 155.178761 180.228954 
L 159.456904 180.228954 
L 163.735048 180.228954 
L 168.013192 180.228954 
L 172.291336 180.228954 
L 176.56948 180.228954 
L 180.847624 180.228954 
L 185.125767 180.228954 
L 189.403911 180.228954 
L 193.682055 180.228954 
L 197.960199 180.228954 
L 202.238343 180.228954 
L 206.516487 180.228954 
L 210.79463 180.228954 
L 215.072774 180.228954 
L 219.350918 180.228954 
L 223.629062 180.228954 
L 227.907206 180.228954 
L 232.18535 180.228954 
L 236.463493 180.228954 
L 240.741637 180.228954 
L 245.019781 180.228954 
L 249.297925 180.228954 
L 253.576069 180.228954 
L 257.854213 180.228954 
L 262.132356 180.228954 
L 266.4105 180.228954 
" clip-path="url(#p8f291a4458)" style="fill: none; stroke: #1f77b4; stroke-width: 2; stroke-linecap: square"/>
   </g>
   <g id="line2d_16">
    <path d="M 56.781452 173.482786 
L 61.059596 171.109302 
L 65.33774 173.197714 
L 69.615884 174.769887 
L 73.894028 176.376229 
L 78.172172 177.647623 
L 82.450315 178.587037 
L 86.728459 179.225694 
L 91.006603 179.635825 
L 95.284747 179.887327 
L 99.562891 180.036235 
L 103.841035 180.122016 
L 108.119178 180.170389 
L 112.397322 180.197215 
L 116.675466 180.211896 
L 120.95361 180.219848 
L 125.231754 180.224119 
L 129.509898 180.226398 
L 133.788041 180.227608 
L 138.066185 180.228247 
L 142.344329 180.228583 
L 146.622473 180.22876 
L 150.900617 180.228853 
L 155.178761 180.228901 
L 159.456904 180.228926 
L 163.735048 180.228939 
L 168.013192 180.228946 
L 172.291336 180.22895 
L 176.56948 180.228952 
L 180.847624 180.228953 
L 185.125767 180.228953 
L 189.403911 180.228953 
L 193.682055 180.228954 
L 197.960199 180.228954 
L 202.238343 180.228954 
L 206.516487 180.228954 
L 210.79463 180.228954 
L 215.072774 180.228954 
L 219.350918 180.228954 
L 223.629062 180.228954 
L 227.907206 180.228954 
L 232.18535 180.228954 
L 236.463493 180.228954 
L 240.741637 180.228954 
L 245.019781 180.228954 
L 249.297925 180.228954 
L 253.576069 180.228954 
L 257.854213 180.228954 
L 262.132356 180.228954 
L 266.4105 180.228954 
" clip-path="url(#p8f291a4458)" style="fill: none; stroke: #ff7f0e; stroke-width: 2; stroke-linecap: square"/>
   </g>
   <g id="line2d_17">
    <path d="M 56.781452 173.482786 
L 61.059596 172.676897 
L 65.33774 175.306097 
L 69.615884 177.004403 
L 73.894028 178.315991 
L 78.172172 179.154957 
L 82.450315 179.657923 
L 86.728459 179.937833 
L 91.006603 180.085542 
L 95.284747 180.16019 
L 99.562891 180.196683 
L 103.841035 180.214063 
L 108.119178 180.222175 
L 112.397322 180.2259 
L 116.675466 180.22759 
L 120.95361 180.228349 
L 125.231754 180.228687 
L 129.509898 180.228837 
L 133.788041 180.228902 
L 138.066185 180.228931 
L 142.344329 180.228944 
L 146.622473 180.22895 
L 150.900617 180.228952 
L 155.178761 180.228953 
L 159.456904 180.228953 
L 163.735048 180.228954 
L 168.013192 180.228954 
L 172.291336 180.228954 
L 176.56948 180.228954 
L 180.847624 180.228954 
L 185.125767 180.228954 
L 189.403911 180.228954 
L 193.682055 180.228954 
L 197.960199 180.228954 
L 202.238343 180.228954 
L 206.516487 180.228954 
L 210.79463 180.228954 
L 215.072774 180.228954 
L 219.350918 180.228954 
L 223.629062 180.228954 
L 227.907206 180.228954 
L 232.18535 180.228954 
L 236.463493 180.228954 
L 240.741637 180.228954 
L 245.019781 180.228954 
L 249.297925 180.228954 
L 253.576069 180.228954 
L 257.854213 180.228954 
L 262.132356 180.228954 
L 266.4105 180.228954 
" clip-path="url(#p8f291a4458)" style="fill: none; stroke: #2ca02c; stroke-width: 2; stroke-linecap: square"/>
   </g>
   <g id="line2d_18">
    <path d="M 56.781452 173.482786 
L 61.059596 167.608191 
L 65.33774 167.173044 
L 69.615884 166.577664 
L 73.894028 167.177529 
L 78.172172 168.322668 
L 82.450315 169.876041 
L 86.728459 171.555302 
L 91.006603 173.182719 
L 95.284747 174.643589 
L 99.562891 175.887972 
L 103.841035 176.907779 
L 108.119178 177.719807 
L 112.397322 178.35233 
L 116.675466 178.836744 
L 120.95361 179.202851 
L 125.231754 179.476674 
L 129.509898 179.679789 
L 133.788041 179.829462 
L 138.066185 179.93917 
L 142.344329 180.019241 
L 146.622473 180.077479 
L 150.900617 180.119716 
L 155.178761 180.150278 
L 159.456904 180.172351 
L 163.735048 180.188267 
L 168.013192 180.199729 
L 172.291336 180.207975 
L 176.56948 180.213902 
L 180.847624 180.218159 
L 185.125767 180.221215 
L 189.403911 180.223407 
L 193.682055 180.22498 
L 197.960199 180.226107 
L 202.238343 180.226915 
L 206.516487 180.227493 
L 210.79463 180.227908 
L 215.072774 180.228205 
L 219.350918 180.228418 
L 223.629062 180.22857 
L 227.907206 180.228679 
L 232.18535 180.228757 
L 236.463493 180.228813 
L 240.741637 180.228853 
L 245.019781 180.228882 
L 249.297925 180.228902 
L 253.576069 180.228917 
L 257.854213 180.228927 
L 262.132356 180.228935 
L 266.4105 180.22894 
" clip-path="url(#p8f291a4458)" style="fill: none; stroke: #d62728; stroke-width: 2; stroke-linecap: square"/>
   </g>
   <g id="line2d_19">
    <path d="M 56.781452 173.482786 
L 61.059596 173.74661 
L 65.33774 176.535699 
L 69.615884 178.118512 
L 73.894028 179.140193 
L 78.172172 179.698888 
L 82.450315 179.985107 
L 86.728459 180.121573 
L 91.006603 180.183319 
L 95.284747 180.210094 
L 99.562891 180.221329 
L 103.841035 180.225925 
L 108.119178 180.227767 
L 112.397322 180.228494 
L 116.675466 180.228777 
L 120.95361 180.228886 
L 125.231754 180.228928 
L 129.509898 180.228944 
L 133.788041 180.22895 
L 138.066185 180.228952 
L 142.344329 180.228953 
L 146.622473 180.228954 
L 150.900617 180.228954 
L 155.178761 180.228954 
L 159.456904 180.228954 
L 163.735048 180.228954 
L 168.013192 180.228954 
L 172.291336 180.228954 
L 176.56948 180.228954 
L 180.847624 180.228954 
L 185.125767 180.228954 
L 189.403911 180.228954 
L 193.682055 180.228954 
L 197.960199 180.228954 
L 202.238343 180.228954 
L 206.516487 180.228954 
L 210.79463 180.228954 
L 215.072774 180.228954 
L 219.350918 180.228954 
L 223.629062 180.228954 
L 227.907206 180.228954 
L 232.18535 180.228954 
L 236.463493 180.228954 
L 240.741637 180.228954 
L 245.019781 180.228954 
L 249.297925 180.228954 
L 253.576069 180.228954 
L 257.854213 180.228954 
L 262.132356 180.228954 
L 266.4105 180.228954 
" clip-path="url(#p8f291a4458)" style="fill: none; stroke: #9467bd; stroke-width: 2; stroke-linecap: square"/>
   </g>
   <g id="line2d_20">
    <path d="M 56.781452 173.482786 
L 61.059596 168.673844 
L 65.33774 169.195316 
L 69.615884 169.58928 
L 73.894028 170.861563 
L 78.172172 172.369556 
L 82.450315 173.949961 
L 86.728459 175.399322 
L 91.006603 176.628868 
L 95.284747 177.611507 
L 99.562891 178.363599 
L 103.841035 178.920599 
L 108.119178 179.32289 
L 112.397322 179.607848 
L 116.675466 179.806656 
L 120.95361 179.943715 
L 125.231754 180.037314 
L 129.509898 180.100754 
L 133.788041 180.143494 
L 138.066185 180.172148 
L 142.344329 180.191283 
L 146.622473 180.20402 
L 150.900617 180.212477 
L 155.178761 180.21808 
L 159.456904 180.221785 
L 163.735048 180.224232 
L 168.013192 180.225846 
L 172.291336 180.226909 
L 176.56948 180.22761 
L 180.847624 180.228071 
L 185.125767 180.228374 
L 189.403911 180.228573 
L 193.682055 180.228704 
L 197.960199 180.22879 
L 202.238343 180.228846 
L 206.516487 180.228883 
L 210.79463 180.228907 
L 215.072774 180.228923 
L 219.350918 180.228934 
L 223.629062 180.228941 
L 227.907206 180.228945 
L 232.18535 180.228948 
L 236.463493 180.22895 
L 240.741637 180.228951 
L 245.019781 180.228952 
L 249.297925 180.228953 
L 253.576069 180.228953 
L 257.854213 180.228953 
L 262.132356 180.228953 
L 266.4105 180.228954 
" clip-path="url(#p8f291a4458)" style="fill: none; stroke: #8c564b; stroke-width: 2; stroke-linecap: square"/>
   </g>
   <g id="line2d_21">
    <path d="M 56.781452 173.482786 
L 61.059596 162.564429 
L 65.33774 155.355586 
L 69.615884 144.712212 
L 73.894028 133.611753 
L 78.172172 121.577125 
L 82.450315 109.63801 
L 86.728459 98.148339 
L 91.006603 87.503673 
L 95.284747 77.875667 
L 99.562891 69.343396 
L 103.841035 61.893262 
L 108.119178 55.462497 
L 112.397322 49.958997 
L 116.675466 45.279622 
L 120.95361 41.320198 
L 125.231754 37.982072 
L 129.509898 35.175356 
L 133.788041 32.820244 
L 138.066185 30.846888 
L 142.344329 29.195051 
L 146.622473 27.813376 
L 150.900617 26.658302 
L 155.178761 25.692924 
L 159.456904 24.886137 
L 163.735048 24.211976 
L 168.013192 23.648539 
L 172.291336 23.177602 
L 176.56948 22.783857 
L 180.847624 22.454658 
L 185.125767 22.179361 
L 189.403911 21.948958 
L 193.682055 21.756185 
L 197.960199 21.594796 
L 202.238343 21.459672 
L 206.516487 21.346415 
L 210.79463 21.251612 
L 215.072774 21.172113 
L 219.350918 21.105528 
L 223.629062 21.049585 
L 227.907206 21.002649 
L 232.18535 20.963261 
L 236.463493 20.930276 
L 240.741637 20.902533 
L 245.019781 20.879224 
L 249.297925 20.859732 
L 253.576069 20.843266 
L 257.854213 20.829456 
L 262.132356 20.81781 
L 266.4105 20.808029 
" clip-path="url(#p8f291a4458)" style="fill: none; stroke: #e377c2; stroke-width: 2; stroke-linecap: square"/>
   </g>
   <g id="patch_3">
    <path d="M 46.3 188.2 
L 46.3 12.836983 
" style="fill: none; stroke: #000000; stroke-width: 0.8; stroke-linejoin: miter; stroke-linecap: square"/>
   </g>
   <g id="patch_4">
    <path d="M 276.891953 188.2 
L 276.891953 12.836983 
" style="fill: none; stroke: #000000; stroke-width: 0.8; stroke-linejoin: miter; stroke-linecap: square"/>
   </g>
   <g id="patch_5">
    <path d="M 46.3 188.2 
L 276.891953 188.2 
" style="fill: none; stroke: #000000; stroke-width: 0.8; stroke-linejoin: miter; stroke-linecap: square"/>
   </g>
   <g id="patch_6">
    <path d="M 46.3 12.836983 
L 276.891953 12.836983 
" style="fill: none; stroke: #000000; stroke-width: 0.8; stroke-linejoin: miter; stroke-linecap: square"/>
   </g>
   <g id="legend_1">
    <g id="patch_7">
     <path d="M 218.804453 153.391929 
L 269.891953 153.391929 
Q 271.891953 153.391929 271.891953 151.391929 
L 271.891953 49.645054 
Q 271.891953 47.645054 269.891953 47.645054 
L 218.804453 47.645054 
Q 216.804453 47.645054 216.804453 49.645054 
L 216.804453 151.391929 
Q 216.804453 153.391929 218.804453 153.391929 
z
" style="fill: #ffffff; opacity: 0.8; stroke: #cccccc; stroke-linejoin: miter"/>
    </g>
    <g id="line2d_22">
     <path d="M 220.804453 55.743491 
L 230.804453 55.743491 
L 240.804453 55.743491 
" style="fill: none; stroke: #1f77b4; stroke-width: 2; stroke-linecap: square"/>
    </g>
    <g id="text_15">
     <!-- 000 -->
     <g transform="translate(248.804453 59.243491) scale(0.1 -0.1)">
      <use xlink:href="#DejaVuSans-30"/>
      <use xlink:href="#DejaVuSans-30" x="63.623047"/>
      <use xlink:href="#DejaVuSans-30" x="127.246094"/>
     </g>
    </g>
    <g id="line2d_23">
     <path d="M 220.804453 70.421616 
L 230.804453 70.421616 
L 240.804453 70.421616 
" style="fill: none; stroke: #ff7f0e; stroke-width: 2; stroke-linecap: square"/>
    </g>
    <g id="text_16">
     <!-- 001 -->
     <g transform="translate(248.804453 73.921616) scale(0.1 -0.1)">
      <use xlink:href="#DejaVuSans-30"/>
      <use xlink:href="#DejaVuSans-30" x="63.623047"/>
      <use xlink:href="#DejaVuSans-31" x="127.246094"/>
     </g>
    </g>
    <g id="line2d_24">
     <path d="M 220.804453 85.099741 
L 230.804453 85.099741 
L 240.804453 85.099741 
" style="fill: none; stroke: #2ca02c; stroke-width: 2; stroke-linecap: square"/>
    </g>
    <g id="text_17">
     <!-- 010 -->
     <g transform="translate(248.804453 88.599741) scale(0.1 -0.1)">
      <use xlink:href="#DejaVuSans-30"/>
      <use xlink:href="#DejaVuSans-31" x="63.623047"/>
      <use xlink:href="#DejaVuSans-30" x="127.246094"/>
     </g>
    </g>
    <g id="line2d_25">
     <path d="M 220.804453 99.777866 
L 230.804453 99.777866 
L 240.804453 99.777866 
" style="fill: none; stroke: #d62728; stroke-width: 2; stroke-linecap: square"/>
    </g>
    <g id="text_18">
     <!-- 011 -->
     <g transform="translate(248.804453 103.277866) scale(0.1 -0.1)">
      <use xlink:href="#DejaVuSans-30"/>
      <use xlink:href="#DejaVuSans-31" x="63.623047"/>
      <use xlink:href="#DejaVuSans-31" x="127.246094"/>
     </g>
    </g>
    <g id="line2d_26">
     <path d="M 220.804453 114.455991 
L 230.804453 114.455991 
L 240.804453 114.455991 
" style="fill: none; stroke: #9467bd; stroke-width: 2; stroke-linecap: square"/>
    </g>
    <g id="text_19">
     <!-- 100 -->
     <g transform="translate(248.804453 117.955991) scale(0.1 -0.1)">
      <use xlink:href="#DejaVuSans-31"/>
      <use xlink:href="#DejaVuSans-30" x="63.623047"/>
      <use xlink:href="#DejaVuSans-30" x="127.246094"/>
     </g>
    </g>
    <g id="line2d_27">
     <path d="M 220.804453 129.134116 
L 230.804453 129.134116 
L 240.804453 129.134116 
" style="fill: none; stroke: #8c564b; stroke-width: 2; stroke-linecap: square"/>
    </g>
    <g id="text_20">
     <!-- 101 -->
     <g transform="translate(248.804453 132.634116) scale(0.1 -0.1)">
      <use xlink:href="#DejaVuSans-31"/>
      <use xlink:href="#DejaVuSans-30" x="63.623047"/>
      <use xlink:href="#DejaVuSans-31" x="127.246094"/>
     </g>
    </g>
    <g id="line2d_28">
     <path d="M 220.804453 143.812241 
L 230.804453 143.812241 
L 240.804453 143.812241 
" style="fill: none; stroke: #e377c2; stroke-width: 2; stroke-linecap: square"/>
    </g>
    <g id="text_21">
     <!-- 110 -->
     <g transform="translate(248.804453 147.312241) scale(0.1 -0.1)">
      <use xlink:href="#DejaVuSans-31"/>
      <use xlink:href="#DejaVuSans-31" x="63.623047"/>
      <use xlink:href="#DejaVuSans-30" x="127.246094"/>
     </g>
    </g>
   </g>
  </g>
 </g>
 <defs>
  <clipPath id="p8f291a4458">
   <rect x="46.3" y="12.836983" width="230.591953" height="175.363017"/>
  </clipPath>
 </defs>
</svg>
