<?xml version="1.0" encoding="utf-8" standalone="no"?>
<!DOCTYPE svg PUBLIC "-//W3C//DTD SVG 1.1//EN"
  "http://www.w3.org/Graphics/SVG/1.1/DTD/svg11.dtd">
<svg xmlns:xlink="http://www.w3.org/1999/xlink" width="288pt" height="216pt" viewBox="0 0 288 216" xmlns="http://www.w3.org/2000/svg" version="1.1">
 <metadata>
  <rdf:RDF xmlns:dc="http://purl.org/dc/elements/1.1/" xmlns:cc="http://creativecommons.org/ns#" xmlns:rdf="http://www.w3.org/1999/02/22-rdf-syntax-ns#">
   <cc:Work>
    <dc:type rdf:resource="http://purl.org/dc/dcmitype/StillImage"/>
    <dc:date>2024-05-21T23:35:48.460674</dc:date>
    <dc:format>image/svg+xml</dc:format>
    <dc:creator>
     <cc:Agent>
      <dc:title>Matplotlib v3.6.2, https://matplotlib.org/</dc:title>
     </cc:Agent>
    </dc:creator>
   </cc:Work>
  </rdf:RDF>
 </metadata>
 <defs>
  <style type="text/css">*{stroke-linejoin: round; stroke-linecap: butt}</style>
 </defs>
 <g id="figure_1">
  <g id="patch_1">
   <path d="M 0 216 
L 288 216 
L 288 0 
L 0 0 
L 0 216 
z
" style="fill: none"/>
  </g>
  <g id="axes_1">
   <g id="patch_2">
    <path d="M 33.675 188.2 
L 276.891953 188.2 
L 276.891953 10.8 
L 33.675 10.8 
z
" style="fill: #ffffff"/>
   </g>
   <g id="matplotlib.axis_1">
    <g id="xtick_1">
     <g id="line2d_1">
      <defs>
       <path id="mdeeb15d631" d="M 0 0 
L 0 3.5 
" style="stroke: #000000; stroke-width: 0.8"/>
      </defs>
      <g>
       <use xlink:href="#mdeeb15d631" x="44.730316" y="188.2" style="stroke: #000000; stroke-width: 0.8"/>
      </g>
     </g>
     <g id="text_1">
      <!-- 0 -->
      <g transform="translate(41.549066 202.798437) scale(0.1 -0.1)">
       <defs>
        <path id="DejaVuSans-30" d="M 2034 4250 
Q 1547 4250 1301 3770 
Q 1056 3291 1056 2328 
Q 1056 1369 1301 889 
Q 1547 409 2034 409 
Q 2525 409 2770 889 
Q 3016 1369 3016 2328 
Q 3016 3291 2770 3770 
Q 2525 4250 2034 4250 
z
M 2034 4750 
Q 2819 4750 3233 4129 
Q 3647 3509 3647 2328 
Q 3647 1150 3233 529 
Q 2819 -91 2034 -91 
Q 1250 -91 836 529 
Q 422 1150 422 2328 
Q 422 3509 836 4129 
Q 1250 4750 2034 4750 
z
" transform="scale(0.015625)"/>
       </defs>
       <use xlink:href="#DejaVuSans-30"/>
      </g>
     </g>
    </g>
    <g id="xtick_2">
     <g id="line2d_2">
      <g>
       <use xlink:href="#mdeeb15d631" x="89.854055" y="188.2" style="stroke: #000000; stroke-width: 0.8"/>
      </g>
     </g>
     <g id="text_2">
      <!-- 10 -->
      <g transform="translate(83.491555 202.798437) scale(0.1 -0.1)">
       <defs>
        <path id="DejaVuSans-31" d="M 794 531 
L 1825 531 
L 1825 4091 
L 703 3866 
L 703 4441 
L 1819 4666 
L 2450 4666 
L 2450 531 
L 3481 531 
L 3481 0 
L 794 0 
L 794 531 
z
" transform="scale(0.015625)"/>
       </defs>
       <use xlink:href="#DejaVuSans-31"/>
       <use xlink:href="#DejaVuSans-30" x="63.623047"/>
      </g>
     </g>
    </g>
    <g id="xtick_3">
     <g id="line2d_3">
      <g>
       <use xlink:href="#mdeeb15d631" x="134.977794" y="188.2" style="stroke: #000000; stroke-width: 0.8"/>
      </g>
     </g>
     <g id="text_3">
      <!-- 20 -->
      <g transform="translate(128.615294 202.798437) scale(0.1 -0.1)">
       <defs>
        <path id="DejaVuSans-32" d="M 1228 531 
L 3431 531 
L 3431 0 
L 469 0 
L 469 531 
Q 828 903 1448 1529 
Q 2069 2156 2228 2338 
Q 2531 2678 2651 2914 
Q 2772 3150 2772 3378 
Q 2772 3750 2511 3984 
Q 2250 4219 1831 4219 
Q 1534 4219 1204 4116 
Q 875 4013 500 3803 
L 500 4441 
Q 881 4594 1212 4672 
Q 1544 4750 1819 4750 
Q 2544 4750 2975 4387 
Q 3406 4025 3406 3419 
Q 3406 3131 3298 2873 
Q 3191 2616 2906 2266 
Q 2828 2175 2409 1742 
Q 1991 1309 1228 531 
z
" transform="scale(0.015625)"/>
       </defs>
       <use xlink:href="#DejaVuSans-32"/>
       <use xlink:href="#DejaVuSans-30" x="63.623047"/>
      </g>
     </g>
    </g>
    <g id="xtick_4">
     <g id="line2d_4">
      <g>
       <use xlink:href="#mdeeb15d631" x="180.101533" y="188.2" style="stroke: #000000; stroke-width: 0.8"/>
      </g>
     </g>
     <g id="text_4">
      <!-- 30 -->
      <g transform="translate(173.739033 202.798437) scale(0.1 -0.1)">
       <defs>
        <path id="DejaVuSans-33" d="M 2597 2516 
Q 3050 2419 3304 2112 
Q 3559 1806 3559 1356 
Q 3559 666 3084 287 
Q 2609 -91 1734 -91 
Q 1441 -91 1130 -33 
Q 819 25 488 141 
L 488 750 
Q 750 597 1062 519 
Q 1375 441 1716 441 
Q 2309 441 2620 675 
Q 2931 909 2931 1356 
Q 2931 1769 2642 2001 
Q 2353 2234 1838 2234 
L 1294 2234 
L 1294 2753 
L 1863 2753 
Q 2328 2753 2575 2939 
Q 2822 3125 2822 3475 
Q 2822 3834 2567 4026 
Q 2313 4219 1838 4219 
Q 1578 4219 1281 4162 
Q 984 4106 628 3988 
L 628 4550 
Q 988 4650 1302 4700 
Q 1616 4750 1894 4750 
Q 2613 4750 3031 4423 
Q 3450 4097 3450 3541 
Q 3450 3153 3228 2886 
Q 3006 2619 2597 2516 
z
" transform="scale(0.015625)"/>
       </defs>
       <use xlink:href="#DejaVuSans-33"/>
       <use xlink:href="#DejaVuSans-30" x="63.623047"/>
      </g>
     </g>
    </g>
    <g id="xtick_5">
     <g id="line2d_5">
      <g>
       <use xlink:href="#mdeeb15d631" x="225.225272" y="188.2" style="stroke: #000000; stroke-width: 0.8"/>
      </g>
     </g>
     <g id="text_5">
      <!-- 40 -->
      <g transform="translate(218.862772 202.798437) scale(0.1 -0.1)">
       <defs>
        <path id="DejaVuSans-34" d="M 2419 4116 
L 825 1625 
L 2419 1625 
L 2419 4116 
z
M 2253 4666 
L 3047 4666 
L 3047 1625 
L 3713 1625 
L 3713 1100 
L 3047 1100 
L 3047 0 
L 2419 0 
L 2419 1100 
L 313 1100 
L 313 1709 
L 2253 4666 
z
" transform="scale(0.015625)"/>
       </defs>
       <use xlink:href="#DejaVuSans-34"/>
       <use xlink:href="#DejaVuSans-30" x="63.623047"/>
      </g>
     </g>
    </g>
    <g id="xtick_6">
     <g id="line2d_6">
      <g>
       <use xlink:href="#mdeeb15d631" x="270.349011" y="188.2" style="stroke: #000000; stroke-width: 0.8"/>
      </g>
     </g>
     <g id="text_6">
      <!-- 50 -->
      <g transform="translate(263.986511 202.798437) scale(0.1 -0.1)">
       <defs>
        <path id="DejaVuSans-35" d="M 691 4666 
L 3169 4666 
L 3169 4134 
L 1269 4134 
L 1269 2991 
Q 1406 3038 1543 3061 
Q 1681 3084 1819 3084 
Q 2600 3084 3056 2656 
Q 3513 2228 3513 1497 
Q 3513 744 3044 326 
Q 2575 -91 1722 -91 
Q 1428 -91 1123 -41 
Q 819 9 494 109 
L 494 744 
Q 775 591 1075 516 
Q 1375 441 1709 441 
Q 2250 441 2565 725 
Q 2881 1009 2881 1497 
Q 2881 1984 2565 2268 
Q 2250 2553 1709 2553 
Q 1456 2553 1204 2497 
Q 953 2441 691 2322 
L 691 4666 
z
" transform="scale(0.015625)"/>
       </defs>
       <use xlink:href="#DejaVuSans-35"/>
       <use xlink:href="#DejaVuSans-30" x="63.623047"/>
      </g>
     </g>
    </g>
   </g>
   <g id="matplotlib.axis_2">
    <g id="ytick_1">
     <g id="line2d_7">
      <defs>
       <path id="mc61df84eec" d="M 0 0 
L -3.5 0 
" style="stroke: #000000; stroke-width: 0.8"/>
      </defs>
      <g>
       <use xlink:href="#mc61df84eec" x="33.675" y="180.136364" style="stroke: #000000; stroke-width: 0.8"/>
      </g>
     </g>
     <g id="text_7">
      <!-- 0.0 -->
      <g transform="translate(10.771875 183.935582) scale(0.1 -0.1)">
       <defs>
        <path id="DejaVuSans-2e" d="M 684 794 
L 1344 794 
L 1344 0 
L 684 0 
L 684 794 
z
" transform="scale(0.015625)"/>
       </defs>
       <use xlink:href="#DejaVuSans-30"/>
       <use xlink:href="#DejaVuSans-2e" x="63.623047"/>
       <use xlink:href="#DejaVuSans-30" x="95.410156"/>
      </g>
     </g>
    </g>
    <g id="ytick_2">
     <g id="line2d_8">
      <g>
       <use xlink:href="#mc61df84eec" x="33.675" y="147.881814" style="stroke: #000000; stroke-width: 0.8"/>
      </g>
     </g>
     <g id="text_8">
      <!-- 0.2 -->
      <g transform="translate(10.771875 151.681033) scale(0.1 -0.1)">
       <use xlink:href="#DejaVuSans-30"/>
       <use xlink:href="#DejaVuSans-2e" x="63.623047"/>
       <use xlink:href="#DejaVuSans-32" x="95.410156"/>
      </g>
     </g>
    </g>
    <g id="ytick_3">
     <g id="line2d_9">
      <g>
       <use xlink:href="#mc61df84eec" x="33.675" y="115.627265" style="stroke: #000000; stroke-width: 0.8"/>
      </g>
     </g>
     <g id="text_9">
      <!-- 0.4 -->
      <g transform="translate(10.771875 119.426484) scale(0.1 -0.1)">
       <use xlink:href="#DejaVuSans-30"/>
       <use xlink:href="#DejaVuSans-2e" x="63.623047"/>
       <use xlink:href="#DejaVuSans-34" x="95.410156"/>
      </g>
     </g>
    </g>
    <g id="ytick_4">
     <g id="line2d_10">
      <g>
       <use xlink:href="#mc61df84eec" x="33.675" y="83.372716" style="stroke: #000000; stroke-width: 0.8"/>
      </g>
     </g>
     <g id="text_10">
      <!-- 0.6 -->
      <g transform="translate(10.771875 87.171934) scale(0.1 -0.1)">
       <defs>
        <path id="DejaVuSans-36" d="M 2113 2584 
Q 1688 2584 1439 2293 
Q 1191 2003 1191 1497 
Q 1191 994 1439 701 
Q 1688 409 2113 409 
Q 2538 409 2786 701 
Q 3034 994 3034 1497 
Q 3034 2003 2786 2293 
Q 2538 2584 2113 2584 
z
M 3366 4563 
L 3366 3988 
Q 3128 4100 2886 4159 
Q 2644 4219 2406 4219 
Q 1781 4219 1451 3797 
Q 1122 3375 1075 2522 
Q 1259 2794 1537 2939 
Q 1816 3084 2150 3084 
Q 2853 3084 3261 2657 
Q 3669 2231 3669 1497 
Q 3669 778 3244 343 
Q 2819 -91 2113 -91 
Q 1303 -91 875 529 
Q 447 1150 447 2328 
Q 447 3434 972 4092 
Q 1497 4750 2381 4750 
Q 2619 4750 2861 4703 
Q 3103 4656 3366 4563 
z
" transform="scale(0.015625)"/>
       </defs>
       <use xlink:href="#DejaVuSans-30"/>
       <use xlink:href="#DejaVuSans-2e" x="63.623047"/>
       <use xlink:href="#DejaVuSans-36" x="95.410156"/>
      </g>
     </g>
    </g>
    <g id="ytick_5">
     <g id="line2d_11">
      <g>
       <use xlink:href="#mc61df84eec" x="33.675" y="51.118166" style="stroke: #000000; stroke-width: 0.8"/>
      </g>
     </g>
     <g id="text_11">
      <!-- 0.8 -->
      <g transform="translate(10.771875 54.917385) scale(0.1 -0.1)">
       <defs>
        <path id="DejaVuSans-38" d="M 2034 2216 
Q 1584 2216 1326 1975 
Q 1069 1734 1069 1313 
Q 1069 891 1326 650 
Q 1584 409 2034 409 
Q 2484 409 2743 651 
Q 3003 894 3003 1313 
Q 3003 1734 2745 1975 
Q 2488 2216 2034 2216 
z
M 1403 2484 
Q 997 2584 770 2862 
Q 544 3141 544 3541 
Q 544 4100 942 4425 
Q 1341 4750 2034 4750 
Q 2731 4750 3128 4425 
Q 3525 4100 3525 3541 
Q 3525 3141 3298 2862 
Q 3072 2584 2669 2484 
Q 3125 2378 3379 2068 
Q 3634 1759 3634 1313 
Q 3634 634 3220 271 
Q 2806 -91 2034 -91 
Q 1263 -91 848 271 
Q 434 634 434 1313 
Q 434 1759 690 2068 
Q 947 2378 1403 2484 
z
M 1172 3481 
Q 1172 3119 1398 2916 
Q 1625 2713 2034 2713 
Q 2441 2713 2670 2916 
Q 2900 3119 2900 3481 
Q 2900 3844 2670 4047 
Q 2441 4250 2034 4250 
Q 1625 4250 1398 4047 
Q 1172 3844 1172 3481 
z
" transform="scale(0.015625)"/>
       </defs>
       <use xlink:href="#DejaVuSans-30"/>
       <use xlink:href="#DejaVuSans-2e" x="63.623047"/>
       <use xlink:href="#DejaVuSans-38" x="95.410156"/>
      </g>
     </g>
    </g>
    <g id="ytick_6">
     <g id="line2d_12">
      <g>
       <use xlink:href="#mc61df84eec" x="33.675" y="18.863617" style="stroke: #000000; stroke-width: 0.8"/>
      </g>
     </g>
     <g id="text_12">
      <!-- 1.0 -->
      <g transform="translate(10.771875 22.662836) scale(0.1 -0.1)">
       <use xlink:href="#DejaVuSans-31"/>
       <use xlink:href="#DejaVuSans-2e" x="63.623047"/>
       <use xlink:href="#DejaVuSans-30" x="95.410156"/>
      </g>
     </g>
    </g>
   </g>
   <g id="line2d_13">
    <path d="M 44.730316 157.097399 
L 49.24269 176.12595 
L 53.755064 179.889267 
L 58.267438 180.121014 
L 62.779812 180.135312 
L 67.292185 180.136286 
L 71.804559 180.136358 
L 76.316933 180.136363 
L 80.829307 180.136364 
L 85.341681 180.136364 
L 89.854055 180.136364 
L 94.366429 180.136364 
L 98.878803 180.136364 
L 103.391177 180.136364 
L 107.90355 180.136364 
L 112.415924 180.136364 
L 116.928298 180.136364 
L 121.440672 180.136364 
L 125.953046 180.136364 
L 130.46542 180.136364 
L 134.977794 180.136364 
L 139.490168 180.136364 
L 144.002542 180.136364 
L 148.514916 180.136364 
L 153.027289 180.136364 
L 157.539663 180.136364 
L 162.052037 180.136364 
L 166.564411 180.136364 
L 171.076785 180.136364 
L 175.589159 180.136364 
L 180.101533 180.136364 
L 184.613907 180.136364 
L 189.126281 180.136364 
L 193.638654 180.136364 
L 198.151028 180.136364 
L 202.663402 180.136364 
L 207.175776 180.136364 
L 211.68815 180.136364 
L 216.200524 180.136364 
L 220.712898 180.136364 
L 225.225272 180.136364 
L 229.737646 180.136364 
L 234.250019 180.136364 
L 238.762393 180.136364 
L 243.274767 180.136364 
L 247.787141 180.136364 
L 252.299515 180.136364 
L 256.811889 180.136364 
L 261.324263 180.136364 
L 265.836637 180.136364 
" clip-path="url(#p4473c8c410)" style="fill: none; stroke: #1f77b4; stroke-width: 2; stroke-linecap: square"/>
   </g>
   <g id="line2d_14">
    <path d="M 44.730316 157.097399 
L 49.24269 158.070204 
L 53.755064 162.61268 
L 58.267438 167.667626 
L 62.779812 171.949096 
L 67.292185 175.096613 
L 71.804559 177.183671 
L 76.316933 178.468092 
L 80.829307 179.217957 
L 85.341681 179.639945 
L 89.854055 179.871455 
L 94.366429 179.996254 
L 98.878803 180.062718 
L 103.391177 180.09782 
L 107.90355 180.116252 
L 112.415924 180.125891 
L 116.928298 180.130919 
L 121.440672 180.133535 
L 125.953046 180.134896 
L 130.46542 180.135602 
L 134.977794 180.135969 
L 139.490168 180.136159 
L 144.002542 180.136257 
L 148.514916 180.136309 
L 153.027289 180.136335 
L 157.539663 180.136349 
L 162.052037 180.136356 
L 166.564411 180.13636 
L 171.076785 180.136362 
L 175.589159 180.136363 
L 180.101533 180.136363 
L 184.613907 180.136363 
L 189.126281 180.136363 
L 193.638654 180.136364 
L 198.151028 180.136364 
L 202.663402 180.136364 
L 207.175776 180.136364 
L 211.68815 180.136364 
L 216.200524 180.136364 
L 220.712898 180.136364 
L 225.225272 180.136364 
L 229.737646 180.136364 
L 234.250019 180.136364 
L 238.762393 180.136364 
L 243.274767 180.136364 
L 247.787141 180.136364 
L 252.299515 180.136364 
L 256.811889 180.136364 
L 261.324263 180.136364 
L 265.836637 180.136364 
" clip-path="url(#p4473c8c410)" style="fill: none; stroke: #ff7f0e; stroke-width: 2; stroke-linecap: square"/>
   </g>
   <g id="line2d_15">
    <path d="M 44.730316 157.097399 
L 49.24269 161.863202 
L 53.755064 167.86732 
L 58.267438 172.771353 
L 62.779812 176.071205 
L 67.292185 178.039509 
L 71.804559 179.109467 
L 76.316933 179.652273 
L 80.829307 179.914304 
L 85.341681 180.036444 
L 89.854055 180.092004 
L 94.366429 180.116854 
L 98.878803 180.127839 
L 103.391177 180.132656 
L 107.90355 180.134756 
L 112.415924 180.135668 
L 116.928298 180.136063 
L 121.440672 180.136234 
L 125.953046 180.136308 
L 130.46542 180.13634 
L 134.977794 180.136353 
L 139.490168 180.136359 
L 144.002542 180.136362 
L 148.514916 180.136363 
L 153.027289 180.136363 
L 157.539663 180.136363 
L 162.052037 180.136364 
L 166.564411 180.136364 
L 171.076785 180.136364 
L 175.589159 180.136364 
L 180.101533 180.136364 
L 184.613907 180.136364 
L 189.126281 180.136364 
L 193.638654 180.136364 
L 198.151028 180.136364 
L 202.663402 180.136364 
L 207.175776 180.136364 
L 211.68815 180.136364 
L 216.200524 180.136364 
L 220.712898 180.136364 
L 225.225272 180.136364 
L 229.737646 180.136364 
L 234.250019 180.136364 
L 238.762393 180.136364 
L 243.274767 180.136364 
L 247.787141 180.136364 
L 252.299515 180.136364 
L 256.811889 180.136364 
L 261.324263 180.136364 
L 265.836637 180.136364 
" clip-path="url(#p4473c8c410)" style="fill: none; stroke: #2ca02c; stroke-width: 2; stroke-linecap: square"/>
   </g>
   <g id="line2d_16">
    <path d="M 44.730316 157.097399 
L 49.24269 149.59882 
L 53.755064 147.597629 
L 58.267438 148.956246 
L 62.779812 152.401319 
L 67.292185 156.890711 
L 71.804559 161.518507 
L 76.316933 165.71337 
L 80.829307 169.225903 
L 85.341681 172.020273 
L 89.854055 174.169307 
L 94.366429 175.784958 
L 98.878803 176.981099 
L 103.391177 177.857436 
L 107.90355 178.494885 
L 112.415924 178.956284 
L 116.928298 179.289117 
L 121.440672 179.528643 
L 125.953046 179.700736 
L 130.46542 179.824239 
L 134.977794 179.912801 
L 139.490168 179.976271 
L 144.002542 180.021741 
L 148.514916 180.054306 
L 153.027289 180.077624 
L 157.539663 180.094318 
L 162.052037 180.10627 
L 166.564411 180.114824 
L 171.076785 180.120948 
L 175.589159 180.125331 
L 180.101533 180.128468 
L 184.613907 180.130713 
L 189.126281 180.132319 
L 193.638654 180.133469 
L 198.151028 180.134292 
L 202.663402 180.134881 
L 207.175776 180.135303 
L 211.68815 180.135605 
L 216.200524 180.13582 
L 220.712898 180.135975 
L 225.225272 180.136085 
L 229.737646 180.136165 
L 234.250019 180.136221 
L 238.762393 180.136262 
L 243.274767 180.136291 
L 247.787141 180.136311 
L 252.299515 180.136326 
L 256.811889 180.136337 
L 261.324263 180.136345 
L 265.836637 180.13635 
" clip-path="url(#p4473c8c410)" style="fill: none; stroke: #d62728; stroke-width: 2; stroke-linecap: square"/>
   </g>
   <g id="line2d_17">
    <path d="M 44.730316 157.097399 
L 49.24269 164.451508 
L 53.755064 170.931809 
L 58.267438 175.316027 
L 62.779812 177.822682 
L 67.292185 179.10147 
L 71.804559 179.697849 
L 76.316933 179.957805 
L 80.829307 180.065702 
L 85.341681 180.108958 
L 89.854055 180.125883 
L 94.366429 180.132395 
L 98.878803 180.134871 
L 103.391177 180.135805 
L 107.90355 180.136155 
L 112.415924 180.136286 
L 116.928298 180.136335 
L 121.440672 180.136353 
L 125.953046 180.13636 
L 130.46542 180.136362 
L 134.977794 180.136363 
L 139.490168 180.136363 
L 144.002542 180.136364 
L 148.514916 180.136364 
L 153.027289 180.136364 
L 157.539663 180.136364 
L 162.052037 180.136364 
L 166.564411 180.136364 
L 171.076785 180.136364 
L 175.589159 180.136364 
L 180.101533 180.136364 
L 184.613907 180.136364 
L 189.126281 180.136364 
L 193.638654 180.136364 
L 198.151028 180.136364 
L 202.663402 180.136364 
L 207.175776 180.136364 
L 211.68815 180.136364 
L 216.200524 180.136364 
L 220.712898 180.136364 
L 225.225272 180.136364 
L 229.737646 180.136364 
L 234.250019 180.136364 
L 238.762393 180.136364 
L 243.274767 180.136364 
L 247.787141 180.136364 
L 252.299515 180.136364 
L 256.811889 180.136364 
L 261.324263 180.136364 
L 265.836637 180.136364 
" clip-path="url(#p4473c8c410)" style="fill: none; stroke: #9467bd; stroke-width: 2; stroke-linecap: square"/>
   </g>
   <g id="line2d_18">
    <path d="M 44.730316 157.097399 
L 49.24269 152.177305 
L 53.755064 152.63766 
L 58.267438 155.834903 
L 62.779812 160.230109 
L 67.292185 164.791794 
L 71.804559 168.844724 
L 76.316933 172.105403 
L 80.829307 174.561954 
L 85.341681 176.332953 
L 89.854055 177.572271 
L 94.366429 178.422156 
L 98.878803 178.996984 
L 103.391177 179.382107 
L 107.90355 179.638456 
L 112.415924 179.808322 
L 116.928298 179.920531 
L 121.440672 179.994494 
L 125.953046 180.043173 
L 130.46542 180.075178 
L 134.977794 180.096205 
L 139.490168 180.110012 
L 144.002542 180.119075 
L 148.514916 180.125022 
L 153.027289 180.128924 
L 157.539663 180.131484 
L 162.052037 180.133163 
L 166.564411 180.134265 
L 171.076785 180.134987 
L 175.589159 180.135461 
L 180.101533 180.135772 
L 184.613907 180.135975 
L 189.126281 180.136109 
L 193.638654 180.136197 
L 198.151028 180.136254 
L 202.663402 180.136292 
L 207.175776 180.136317 
L 211.68815 180.136333 
L 216.200524 180.136343 
L 220.712898 180.13635 
L 225.225272 180.136355 
L 229.737646 180.136358 
L 234.250019 180.13636 
L 238.762393 180.136361 
L 243.274767 180.136362 
L 247.787141 180.136363 
L 252.299515 180.136363 
L 256.811889 180.136363 
L 261.324263 180.136363 
L 265.836637 180.136363 
" clip-path="url(#p4473c8c410)" style="fill: none; stroke: #8c564b; stroke-width: 2; stroke-linecap: square"/>
   </g>
   <g id="line2d_19">
    <path d="M 44.730316 157.097399 
L 49.24269 137.394801 
L 53.755064 118.145445 
L 58.267438 99.014631 
L 62.779812 81.07207 
L 67.292185 65.625421 
L 71.804559 53.191228 
L 76.316933 43.648498 
L 80.829307 36.559615 
L 85.341681 31.406855 
L 89.854055 27.714519 
L 94.366429 25.092825 
L 98.878803 23.241918 
L 103.391177 21.939603 
L 107.90355 21.024944 
L 112.415924 20.382985 
L 116.928298 19.932472 
L 121.440672 19.616188 
L 125.953046 19.393964 
L 130.46542 19.237711 
L 134.977794 19.127733 
L 139.490168 19.050275 
L 144.002542 18.995646 
L 148.514916 18.957061 
L 153.027289 18.929819 
L 157.539663 18.910555 
L 162.052037 18.896925 
L 166.564411 18.887255 
L 171.076785 18.88041 
L 175.589159 18.875556 
L 180.101533 18.872115 
L 184.613907 18.869663 
L 189.126281 18.867914 
L 193.638654 18.866684 
L 198.151028 18.86579 
L 202.663402 18.865165 
L 207.175776 18.864723 
L 211.68815 18.864405 
L 216.200524 18.864175 
L 220.712898 18.864011 
L 225.225272 18.863896 
L 229.737646 18.863819 
L 234.250019 18.863761 
L 238.762393 18.863713 
L 243.274767 18.863704 
L 247.787141 18.863665 
L 252.299515 18.863646 
L 256.811889 18.863646 
L 261.324263 18.863636 
L 265.836637 18.863636 
" clip-path="url(#p4473c8c410)" style="fill: none; stroke: #e377c2; stroke-width: 2; stroke-linecap: square"/>
   </g>
   <g id="patch_3">
    <path d="M 33.675 188.2 
L 33.675 10.8 
" style="fill: none; stroke: #000000; stroke-width: 0.8; stroke-linejoin: miter; stroke-linecap: square"/>
   </g>
   <g id="patch_4">
    <path d="M 276.891953 188.2 
L 276.891953 10.8 
" style="fill: none; stroke: #000000; stroke-width: 0.8; stroke-linejoin: miter; stroke-linecap: square"/>
   </g>
   <g id="patch_5">
    <path d="M 33.675 188.2 
L 276.891953 188.2 
" style="fill: none; stroke: #000000; stroke-width: 0.8; stroke-linejoin: miter; stroke-linecap: square"/>
   </g>
   <g id="patch_6">
    <path d="M 33.675 10.8 
L 276.891953 10.8 
" style="fill: none; stroke: #000000; stroke-width: 0.8; stroke-linejoin: miter; stroke-linecap: square"/>
   </g>
   <g id="legend_1">
    <g id="patch_7">
     <path d="M 218.804453 152.373438 
L 269.891953 152.373438 
Q 271.891953 152.373438 271.891953 150.373438 
L 271.891953 48.626563 
Q 271.891953 46.626563 269.891953 46.626563 
L 218.804453 46.626563 
Q 216.804453 46.626563 216.804453 48.626563 
L 216.804453 150.373438 
Q 216.804453 152.373438 218.804453 152.373438 
z
" style="fill: #ffffff; opacity: 0.8; stroke: #cccccc; stroke-linejoin: miter"/>
    </g>
    <g id="line2d_20">
     <path d="M 220.804453 54.725 
L 230.804453 54.725 
L 240.804453 54.725 
" style="fill: none; stroke: #1f77b4; stroke-width: 2; stroke-linecap: square"/>
    </g>
    <g id="text_13">
     <!-- 000 -->
     <g transform="translate(248.804453 58.225) scale(0.1 -0.1)">
      <use xlink:href="#DejaVuSans-30"/>
      <use xlink:href="#DejaVuSans-30" x="63.623047"/>
      <use xlink:href="#DejaVuSans-30" x="127.246094"/>
     </g>
    </g>
    <g id="line2d_21">
     <path d="M 220.804453 69.403125 
L 230.804453 69.403125 
L 240.804453 69.403125 
" style="fill: none; stroke: #ff7f0e; stroke-width: 2; stroke-linecap: square"/>
    </g>
    <g id="text_14">
     <!-- 001 -->
     <g transform="translate(248.804453 72.903125) scale(0.1 -0.1)">
      <use xlink:href="#DejaVuSans-30"/>
      <use xlink:href="#DejaVuSans-30" x="63.623047"/>
      <use xlink:href="#DejaVuSans-31" x="127.246094"/>
     </g>
    </g>
    <g id="line2d_22">
     <path d="M 220.804453 84.08125 
L 230.804453 84.08125 
L 240.804453 84.08125 
" style="fill: none; stroke: #2ca02c; stroke-width: 2; stroke-linecap: square"/>
    </g>
    <g id="text_15">
     <!-- 010 -->
     <g transform="translate(248.804453 87.58125) scale(0.1 -0.1)">
      <use xlink:href="#DejaVuSans-30"/>
      <use xlink:href="#DejaVuSans-31" x="63.623047"/>
      <use xlink:href="#DejaVuSans-30" x="127.246094"/>
     </g>
    </g>
    <g id="line2d_23">
     <path d="M 220.804453 98.759375 
L 230.804453 98.759375 
L 240.804453 98.759375 
" style="fill: none; stroke: #d62728; stroke-width: 2; stroke-linecap: square"/>
    </g>
    <g id="text_16">
     <!-- 011 -->
     <g transform="translate(248.804453 102.259375) scale(0.1 -0.1)">
      <use xlink:href="#DejaVuSans-30"/>
      <use xlink:href="#DejaVuSans-31" x="63.623047"/>
      <use xlink:href="#DejaVuSans-31" x="127.246094"/>
     </g>
    </g>
    <g id="line2d_24">
     <path d="M 220.804453 113.4375 
L 230.804453 113.4375 
L 240.804453 113.4375 
" style="fill: none; stroke: #9467bd; stroke-width: 2; stroke-linecap: square"/>
    </g>
    <g id="text_17">
     <!-- 100 -->
     <g transform="translate(248.804453 116.9375) scale(0.1 -0.1)">
      <use xlink:href="#DejaVuSans-31"/>
      <use xlink:href="#DejaVuSans-30" x="63.623047"/>
      <use xlink:href="#DejaVuSans-30" x="127.246094"/>
     </g>
    </g>
    <g id="line2d_25">
     <path d="M 220.804453 128.115625 
L 230.804453 128.115625 
L 240.804453 128.115625 
" style="fill: none; stroke: #8c564b; stroke-width: 2; stroke-linecap: square"/>
    </g>
    <g id="text_18">
     <!-- 101 -->
     <g transform="translate(248.804453 131.615625) scale(0.1 -0.1)">
      <use xlink:href="#DejaVuSans-31"/>
      <use xlink:href="#DejaVuSans-30" x="63.623047"/>
      <use xlink:href="#DejaVuSans-31" x="127.246094"/>
     </g>
    </g>
    <g id="line2d_26">
     <path d="M 220.804453 142.79375 
L 230.804453 142.79375 
L 240.804453 142.79375 
" style="fill: none; stroke: #e377c2; stroke-width: 2; stroke-linecap: square"/>
    </g>
    <g id="text_19">
     <!-- 110 -->
     <g transform="translate(248.804453 146.29375) scale(0.1 -0.1)">
      <use xlink:href="#DejaVuSans-31"/>
      <use xlink:href="#DejaVuSans-31" x="63.623047"/>
      <use xlink:href="#DejaVuSans-30" x="127.246094"/>
     </g>
    </g>
   </g>
  </g>
 </g>
 <defs>
  <clipPath id="p4473c8c410">
   <rect x="33.675" y="10.8" width="243.216953" height="177.4"/>
  </clipPath>
 </defs>
</svg>
